<svg width="1920" height="542" viewBox="0 0 1920 542" fill="none" xmlns="http://www.w3.org/2000/svg">
<rect width="1920" height="541" fill="#1F68D6"/>
<path d="M1023.5 223.088C1207 171.771 1322.63 205.315 1507 157.209C1674.01 113.635 1920 0 1920 0V541H0C0 541 331.999 506.917 534.5 443.68C734.504 381.223 821.707 279.519 1023.5 223.088Z" fill="url(#paint0_linear)"/>
<path d="M950.5 120.5C1134 69.0881 1322.63 205.695 1507 157.5C1674.01 113.845 1920 0 1920 0V542L0 0C0 0 331.999 507.854 534.5 444.5C734.504 381.927 748.707 177.036 950.5 120.5Z" fill="url(#paint1_linear)" fill-opacity="0.5"/>
<path d="M969.5 421.5C785.996 472.912 597.375 336.305 413 384.5C245.995 428.155 0 542 0 542V0L1920 542C1920 542 1588 34.1464 1385.5 97.5C1185.5 160.073 1171.29 364.964 969.5 421.5Z" fill="url(#paint2_linear)" fill-opacity="0.5"/>
<defs>
<linearGradient id="paint0_linear" x1="666" y1="246.544" x2="1509.63" y2="554.979" gradientUnits="userSpaceOnUse">
<stop stop-color="#2470E3"/>
<stop offset="1" stop-color="#206ADA"/>
</linearGradient>
<linearGradient id="paint1_linear" x1="0" y1="0" x2="586" y2="542" gradientUnits="userSpaceOnUse">
<stop stop-color="#8E24E2"/>
<stop offset="1" stop-color="#298BE6"/>
</linearGradient>
<linearGradient id="paint2_linear" x1="1920" y1="542" x2="1334" y2="-6.09411e-06" gradientUnits="userSpaceOnUse">
<stop stop-color="#244EE2"/>
<stop offset="1" stop-color="#29A2E6"/>
</linearGradient>
</defs>
</svg>
