<svg xmlns="http://www.w3.org/2000/svg" xmlns:xlink="http://www.w3.org/1999/xlink" viewBox="0 0 350 116.13"><defs><style>.cls-1{fill:#fff;}.cls-2{fill:url(#linear-gradient);}.cls-3{fill:#2681ff;}.cls-4{fill:#0052cc;}.cls-5{fill:#8993a4;}.cls-6{fill:#253858;}</style><linearGradient id="linear-gradient" x1="41.36" y1="55.23" x2="31.29" y2="72.67" gradientUnits="userSpaceOnUse"><stop offset="0" stop-color="#0052cc"></stop><stop offset="0.92" stop-color="#2684ff"></stop></linearGradient></defs><title>Silver Marketplace Partner_BlkBlu_nobg</title><g id="type"><rect class="cls-1" width="350" height="116.13"></rect><path class="cls-2" d="M36.13,52.28a1.11,1.11,0,0,0-1.88.21L24.71,71.57a1.14,1.14,0,0,0,1,1.65H39a1.1,1.1,0,0,0,1-.63C42.9,66.66,41.16,57.66,36.13,52.28Z"></path><path class="cls-3" d="M43.13,34.93a25.18,25.18,0,0,0-1.47,24.84l6.41,12.82a1.15,1.15,0,0,0,1,.63H62.37a1.14,1.14,0,0,0,1-1.65L45.07,34.92A1.08,1.08,0,0,0,43.13,34.93Z"></path><path class="cls-4" d="M41.41,78c0,.76.36,1.37,1.75,1.64.83.18,1,.31,1,.59s-.17.44-.76.44a4.22,4.22,0,0,1-2-.55v1.25a4.06,4.06,0,0,0,2,.44c1.45,0,2-.65,2-1.61m0,0c0-.91-.48-1.34-1.84-1.63-.76-.17-.94-.34-.94-.57s.27-.43.77-.43a4.19,4.19,0,0,1,1.75.44v-1.2a3.9,3.9,0,0,0-1.71-.35c-1.34,0-2,.58-2,1.54"></path><polygon class="cls-4" points="60.1 76.53 60.1 81.73 61.2 81.73 61.2 77.77 61.67 78.82 63.23 81.73 64.63 81.73 64.63 76.53 63.52 76.53 63.52 79.89 63.1 78.92 61.84 76.53 60.1 76.53"></polygon><rect class="cls-4" x="51.85" y="76.54" width="1.21" height="5.19"></rect><path class="cls-4" d="M50.45,80.2c0-.91-.48-1.34-1.84-1.63-.75-.17-.93-.34-.93-.57s.27-.43.76-.43A4.2,4.2,0,0,1,50.2,78v-1.2a4,4,0,0,0-1.72-.35c-1.34,0-2,.58-2,1.54,0,.76.36,1.37,1.75,1.64.83.18,1,.31,1,.59s-.18.44-.76.44a4.26,4.26,0,0,1-2-.55v1.25a4.06,4.06,0,0,0,2,.44c1.46,0,2-.65,2-1.61"></path><polygon class="cls-4" points="32.01 76.53 32.01 81.73 34.5 81.73 34.89 80.61 33.23 80.61 33.23 76.53 32.01 76.53"></polygon><polygon class="cls-4" points="27.1 76.53 27.1 77.66 28.45 77.66 28.45 81.73 29.66 81.73 29.66 77.66 31.1 77.66 31.1 76.53 27.1 76.53"></polygon><path class="cls-4" d="M25.34,76.54h-1.6l-1.81,5.19h1.38l.26-.88a3.43,3.43,0,0,0,1.94,0l.26.88h1.38Zm-.8,3.38a2.53,2.53,0,0,1-.67-.1l.67-2.27.67,2.27A2.53,2.53,0,0,1,24.54,79.92Z"></path><path class="cls-4" d="M38.79,76.54h-1.6l-1.81,5.19h1.38l.26-.88A3.45,3.45,0,0,0,38,81a3.5,3.5,0,0,0,1-.14l.25.88H40.6ZM38,79.92a2.47,2.47,0,0,1-.67-.1L38,77.55l.66,2.27A2.39,2.39,0,0,1,38,79.92Z"></path><path class="cls-4" d="M57.42,76.54h-1.6L54,81.73h1.38l.26-.88a3.45,3.45,0,0,0,1,.14,3.5,3.5,0,0,0,1-.14l.25.88h1.39Zm-.8,3.38a2.47,2.47,0,0,1-.67-.1l.67-2.27.66,2.27A2.39,2.39,0,0,1,56.62,79.92Z"></path><rect class="cls-5" x="88.04" y="16.1" width="0.56" height="83.93"></rect><path class="cls-6" d="M107.7,54.84a12.06,12.06,0,0,1-6.17-1.32V51.13a14.63,14.63,0,0,0,6.3,1.43c2.57,0,3.53-1,3.53-2.53s-.93-2.31-4.18-3.09c-3.85-.94-5.57-2.26-5.57-5.07,0-2.65,2-4.63,6-4.63a10.21,10.21,0,0,1,5.22,1.25v2.34a10.46,10.46,0,0,0-5.33-1.3c-2.23,0-3.56.78-3.56,2.34,0,1.4,1.09,2.11,4.11,2.86,3.61.91,5.64,2.08,5.64,5.15S111.93,54.84,107.7,54.84Z"></path><path class="cls-6" d="M117.6,36.59A1.56,1.56,0,1,1,116,38.15,1.46,1.46,0,0,1,117.6,36.59Zm-1.14,5h2.23v13h-2.23Z"></path><path class="cls-6" d="M125.56,54.66c-2.13,0-3.49-1-3.49-3.4V36.15h2.24V51c0,1.17.78,1.58,1.74,1.58.24,0,.39,0,.65,0v2A4.89,4.89,0,0,1,125.56,54.66Z"></path><path class="cls-6" d="M132.19,54.58l-5-13h2.34l4.22,11.11,4.18-11.11h2.34l-5,13Z"></path><path class="cls-6" d="M147.84,54.84c-4.86,0-7-2.8-7-6.78S143,41.32,147,41.32s5.62,2.79,5.62,6.74v1h-9.49c.31,2.21,1.74,3.64,4.81,3.64a11.41,11.41,0,0,0,4-.7v2.05A9.19,9.19,0,0,1,147.84,54.84Zm-4.76-7.69h7.26c-.13-2.42-1.23-3.8-3.46-3.8S143.32,44.89,143.08,47.15Z"></path><path class="cls-6" d="M157.43,54.58h-2.18v-13h2.18v2.29A4.3,4.3,0,0,1,162,41.4v2.19c-2.86-.29-4.61.57-4.61,3.32Z"></path><path class="cls-6" d="M105.36,64.9V80.58H103V63.5h4L111,73.3,112.53,78l1.59-4.71,3.9-9.8h3.77V80.58h-2.34V65.09l-2,6.16-3.77,9.33h-2.27l-3.71-9.33Z"></path><path class="cls-6" d="M134.35,78.24a4.59,4.59,0,0,1-4.4,2.6c-3.46,0-5.2-2.93-5.2-6.76,0-3.66,1.82-6.76,5.46-6.76a4.27,4.27,0,0,1,4.14,2.55V67.58h2.23v13h-2.23Zm-3.8.52c2,0,3.8-1.27,3.8-4.16v-1c0-2.88-1.64-4.16-3.54-4.16-2.52,0-3.82,1.67-3.82,4.68S128.24,78.76,130.55,78.76Z"></path><path class="cls-6" d="M142.15,80.58H140v-13h2.19v2.29a4.28,4.28,0,0,1,4.6-2.47v2.19c-2.86-.29-4.6.57-4.6,3.32Z"></path><path class="cls-6" d="M148.67,80.58V62.15h2.24V73.67l5.59-6.09h2.91L153.3,74l6.37,6.6h-3l-5.72-6.08v6.08Z"></path><path class="cls-6" d="M167.08,80.84c-4.86,0-7-2.8-7-6.78s2.18-6.74,6.13-6.74,5.62,2.79,5.62,6.74v1h-9.49c.31,2.21,1.74,3.64,4.81,3.64a11.41,11.41,0,0,0,4-.7v2A9.19,9.19,0,0,1,167.08,80.84Zm-4.76-7.69h7.26c-.13-2.42-1.23-3.8-3.46-3.8S162.56,70.89,162.32,73.15Z"></path><path class="cls-6" d="M179.64,78.48a7.71,7.71,0,0,0,1.4-.18v2.15a5.14,5.14,0,0,1-1.51.21c-2.78,0-4.13-1.64-4.13-4v-7h-2.11V67.58h2.11V64.83h2.18v2.75H181v2.08h-3.46v6.89A1.82,1.82,0,0,0,179.64,78.48Z"></path><path class="cls-6" d="M186.14,78.3v7.35H183.9V67.58h2.24v2.34a4.58,4.58,0,0,1,4.39-2.6c3.46,0,5.2,2.94,5.2,6.76s-1.82,6.76-5.46,6.76A4.25,4.25,0,0,1,186.14,78.3Zm3.79-8.9c-2,0-3.79,1.28-3.79,4.16v1c0,2.89,1.64,4.16,3.53,4.16,2.53,0,3.83-1.66,3.83-4.68S192.25,69.4,189.93,69.4Z"></path><path class="cls-6" d="M201.82,80.66c-2.14,0-3.49-1-3.49-3.4V62.15h2.24V77c0,1.17.78,1.58,1.74,1.58.23,0,.39,0,.65,0v2A4.89,4.89,0,0,1,201.82,80.66Z"></path><path class="cls-6" d="M213.8,78.24a4.57,4.57,0,0,1-4.39,2.6c-3.46,0-5.2-2.93-5.2-6.76,0-3.66,1.82-6.76,5.46-6.76a4.26,4.26,0,0,1,4.13,2.55V67.58H216v13H213.8Zm-3.79.52c2,0,3.79-1.27,3.79-4.16v-1c0-2.88-1.64-4.16-3.53-4.16-2.53,0-3.83,1.67-3.83,4.68S207.69,78.76,210,78.76Z"></path><path class="cls-6" d="M228.6,80.25a7.34,7.34,0,0,1-3.18.59c-4.63,0-6.78-2.8-6.78-6.78s2.15-6.74,6.78-6.74a6.89,6.89,0,0,1,3.1.63V70a6.59,6.59,0,0,0-2.94-.63c-3.38,0-4.76,2.14-4.76,4.66s1.4,4.65,4.81,4.65a8.16,8.16,0,0,0,3-.47Z"></path><path class="cls-6" d="M237.36,80.84c-4.87,0-7-2.8-7-6.78s2.19-6.74,6.14-6.74,5.62,2.79,5.62,6.74v1h-9.5c.32,2.21,1.75,3.64,4.81,3.64a11.46,11.46,0,0,0,4-.7v2A9.21,9.21,0,0,1,237.36,80.84Zm-4.76-7.69h7.25c-.13-2.42-1.22-3.8-3.46-3.8S232.83,70.89,232.6,73.15Z"></path><path class="cls-6" d="M255.69,75h-3.41v5.59h-2.34V63.5h5.75c4.26,0,6.34,2.19,6.34,5.69C262,72.91,260,75,255.69,75Zm3.92-5.74c0-2.08-1.17-3.51-4.18-3.51h-3.15v7h3.15C258.44,72.86,259.61,71.43,259.61,69.25Z"></path><path class="cls-6" d="M272.9,78.24a4.57,4.57,0,0,1-4.4,2.6c-3.45,0-5.2-2.93-5.2-6.76,0-3.66,1.82-6.76,5.46-6.76a4.27,4.27,0,0,1,4.14,2.55V67.58h2.23v13H272.9Zm-3.8.52c2,0,3.8-1.27,3.8-4.16v-1c0-2.88-1.64-4.16-3.54-4.16-2.52,0-3.82,1.67-3.82,4.68S266.79,78.76,269.1,78.76Z"></path><path class="cls-6" d="M280.7,80.58h-2.19v-13h2.19v2.29a4.28,4.28,0,0,1,4.6-2.47v2.19c-2.86-.29-4.6.57-4.6,3.32Z"></path><path class="cls-6" d="M292.37,78.48a7.83,7.83,0,0,0,1.41-.18v2.15a5.19,5.19,0,0,1-1.51.21c-2.78,0-4.14-1.64-4.14-4v-7H286V67.58h2.1V64.83h2.19v2.75h3.46v2.08h-3.46v6.89A1.81,1.81,0,0,0,292.37,78.48Z"></path><path class="cls-6" d="M307.69,80.58h-2.24V72.73c0-2.34-.94-3.38-3.07-3.38s-3.51,1.38-3.51,4v7.22h-2.23v-13h2.23v2.14a4.56,4.56,0,0,1,4.11-2.4c3,0,4.71,2.06,4.71,5.65Z"></path><path class="cls-6" d="M317,80.84c-4.86,0-7-2.8-7-6.78s2.18-6.74,6.13-6.74,5.62,2.79,5.62,6.74v1h-9.49c.31,2.21,1.74,3.64,4.81,3.64a11.41,11.41,0,0,0,3.95-.7v2A9.19,9.19,0,0,1,317,80.84Zm-4.76-7.69h7.26c-.13-2.42-1.23-3.8-3.46-3.8S312.5,70.89,312.26,73.15Z"></path><path class="cls-6" d="M326.61,80.58h-2.18v-13h2.18v2.29a4.3,4.3,0,0,1,4.61-2.47v2.19c-2.86-.29-4.61.57-4.61,3.32Z"></path></g></svg>
