<svg width="193" height="159" viewBox="0 0 193 159" fill="none" xmlns="http://www.w3.org/2000/svg">
<path d="M90.2296 158.662C40.3972 158.662 0 156.304 0 153.394C0 150.485 40.3972 148.126 90.2296 148.126C140.062 148.126 180.459 150.485 180.459 153.394C180.459 156.304 140.062 158.662 90.2296 158.662Z" fill="#F5F5F5"/>
<path d="M89.8765 55.9827L87.8987 59.0076L84.9576 58.398L87.1774 54.6378L89.8765 55.9827Z" fill="#9F5B53"/>
<path d="M84.2687 30.0573C83.8499 30.5645 83.5008 31.0159 83.1425 31.5092C82.7842 32.0025 82.4398 32.4771 82.1001 32.9704C81.4207 33.9524 80.7738 34.9622 80.1688 36C79.5639 37.0377 78.9775 38.0988 78.4656 39.211C78.191 39.7555 77.9584 40.3325 77.7071 40.8956C77.4558 41.4587 77.2417 42.0497 77.0602 42.6593L76.9113 43.1247L76.8368 43.3527C76.7949 43.4877 76.7531 43.6319 76.7251 43.7669C76.6227 44.2499 76.5883 44.7449 76.6228 45.2375C76.6842 46.0091 76.8518 46.7686 77.1207 47.4945C77.5762 48.7042 78.1597 49.8617 78.8612 50.9475C80.1681 52.963 81.6843 54.8348 83.3845 56.5319L85.4182 54.9403C84.2999 53.0319 83.2779 51.0687 82.3561 49.0581C81.9326 48.1402 81.5946 47.1853 81.3462 46.2054C81.2535 45.8374 81.2112 45.4586 81.2206 45.0792C81.221 44.9989 81.2384 44.9196 81.2718 44.8465L81.3462 44.6697L81.4998 44.316C82.3711 42.3583 83.3982 40.4737 84.5712 38.6805C85.1575 37.7497 85.7765 36.8516 86.4001 35.9441C87.0237 35.0367 87.7031 34.1292 88.3174 33.3055L84.2687 30.0573Z" fill="#9F5B53"/>
<path d="M85.4183 27.7677C82.2119 28.5029 78.5355 37.2378 78.5355 37.2378L84.9529 41.6495C86.555 39.3538 87.9771 36.9375 89.2063 34.4224C91.1097 30.4249 88.6758 27.0184 85.4183 27.7677Z" fill="#407BFF"/>
<path opacity="0.8" d="M85.4183 27.7677C82.2119 28.5029 78.5355 37.2378 78.5355 37.2378L84.9529 41.6495C86.555 39.3538 87.9771 36.9375 89.2063 34.4224C91.1097 30.4249 88.6758 27.0184 85.4183 27.7677Z" fill="white"/>
<path d="M87.6985 33.3381L84.655 41.4401L84.9575 41.6496C84.9575 41.6496 86.2745 39.7881 87.6985 37.3077V33.3381Z" fill="#407BFF"/>
<path opacity="0.6" d="M87.6985 33.3381L84.655 41.4401L84.9575 41.6496C84.9575 41.6496 86.2745 39.7881 87.6985 37.3077V33.3381Z" fill="white"/>
<path d="M95.8236 144.453H99.244L99.5837 136.537H96.1633L95.8236 144.453Z" fill="#9F5B53"/>
<path d="M75.2964 144.453H78.7169L80.4341 136.537H77.0183L75.2964 144.453Z" fill="#9F5B53"/>
<path d="M99.5837 136.542L99.4069 140.619H95.9865L96.1633 136.542H99.5837Z" fill="#8A4743"/>
<path d="M77.0136 136.542H80.4341L79.5499 140.619H76.1295L77.0136 136.542Z" fill="#8A4743"/>
<path d="M98.2715 57.4953C98.2715 57.4953 94.3903 83.6209 92.2636 93.4075C89.9368 104.111 81.1414 139.832 81.1414 139.832H74.8776C74.8776 139.832 80.676 104.99 82.007 94.3615C83.4496 82.8437 86.4698 57.4767 86.4698 57.4767L98.2715 57.4953Z" fill="#407BFF"/>
<path opacity="0.5" d="M98.2715 57.4953C98.2715 57.4953 94.3903 83.6209 92.2636 93.4075C89.9368 104.111 81.1414 139.832 81.1414 139.832H74.8776C74.8776 139.832 80.676 104.99 82.007 94.3615C83.4496 82.8437 86.4698 57.4767 86.4698 57.4767L98.2715 57.4953Z" fill="black"/>
<path opacity="0.4" d="M95.819 66.8026C91.3329 67.6821 91.8076 84.412 92.3474 93.0166C93.6411 86.9342 95.5351 75.2303 96.8289 66.9235C96.5159 66.7693 96.1596 66.7266 95.819 66.8026Z" fill="black"/>
<path d="M104.759 57.4952C104.759 57.4952 105.224 83.0531 104.856 93.4819C104.47 104.325 100.668 139.832 100.668 139.832H94.879C94.879 139.832 94.6649 104.958 94.4136 94.3103C94.1344 82.6994 92.7336 57.4952 92.7336 57.4952H104.759Z" fill="#407BFF"/>
<path opacity="0.5" d="M104.759 57.4952C104.759 57.4952 105.224 83.0531 104.856 93.4819C104.47 104.325 100.668 139.832 100.668 139.832H94.879C94.879 139.832 94.6649 104.958 94.4136 94.3103C94.1344 82.6994 92.7336 57.4952 92.7336 57.4952H104.759Z" fill="black"/>
<path d="M84.6782 54.2097L87.1772 54.6379L84.9575 58.398C84.9575 58.398 83.217 57.5603 82.9005 55.9362L84.6782 54.2097Z" fill="#9F5B53"/>
<path d="M101.194 15.0633C101.194 15.3378 101.338 15.5612 101.52 15.5612C101.701 15.5612 101.845 15.3378 101.845 15.0633C101.845 14.7887 101.701 14.5653 101.52 14.5653C101.338 14.5653 101.194 14.784 101.194 15.0633Z" fill="#263238"/>
<path d="M101.315 15.5612C101.645 16.404 102.088 17.1978 102.632 17.9206C102.444 18.0552 102.228 18.1471 102.001 18.1897C101.773 18.2323 101.539 18.2246 101.315 18.1672V15.5612Z" fill="#892B29"/>
<path d="M100.217 13.5368C100.251 13.5372 100.284 13.5256 100.31 13.5042C100.472 13.3798 100.661 13.2959 100.862 13.2595C101.062 13.223 101.269 13.2351 101.464 13.2948C101.484 13.3022 101.504 13.3057 101.525 13.3051C101.546 13.3044 101.567 13.2996 101.586 13.2909C101.605 13.2823 101.622 13.2699 101.636 13.2546C101.65 13.2393 101.662 13.2213 101.669 13.2017C101.677 13.1822 101.681 13.1612 101.681 13.14C101.681 13.1188 101.677 13.0978 101.669 13.0783C101.661 13.0587 101.649 13.041 101.633 13.0263C101.618 13.0115 101.6 12.9999 101.58 12.9923C101.335 12.9132 101.075 12.8948 100.821 12.9386C100.567 12.9823 100.328 13.087 100.124 13.2436C100.106 13.2552 100.091 13.2704 100.079 13.2882C100.067 13.306 100.06 13.3261 100.056 13.3471C100.053 13.3681 100.053 13.3896 100.059 13.4102C100.064 13.4309 100.073 13.4502 100.087 13.4669C100.1 13.4889 100.12 13.5069 100.142 13.5192C100.165 13.5314 100.191 13.5375 100.217 13.5368Z" fill="#263238"/>
<path d="M92.2917 18.2417C92.7849 20.7454 93.2736 25.3246 91.5238 26.9952C91.5238 26.9952 92.2079 29.5315 96.8569 29.5315C101.976 29.5315 99.2954 26.9952 99.2954 26.9952C96.5032 26.3297 96.5777 24.2589 97.0663 22.3183L92.2917 18.2417Z" fill="#9F5B53"/>
<path d="M90.8536 27.8655C90.486 27.065 90.0858 26.1436 90.9188 25.8551C91.8495 25.5386 96.8615 25.2175 98.5927 25.8086C98.821 25.8719 99.0346 25.9798 99.2209 26.1262C99.4073 26.2726 99.5627 26.4545 99.6783 26.6614C99.7938 26.8683 99.8672 27.096 99.8942 27.3315C99.9211 27.5669 99.9011 27.8054 99.8352 28.033L90.8536 27.8655Z" fill="#407BFF"/>
<path d="M80.0897 144.621C80.2342 144.64 80.3811 144.63 80.5218 144.592C80.6624 144.553 80.794 144.487 80.9087 144.397C80.9499 144.341 80.9722 144.274 80.9722 144.204C80.9722 144.135 80.9499 144.067 80.9087 144.011C80.8831 143.963 80.8474 143.921 80.804 143.888C80.7606 143.855 80.7106 143.832 80.6574 143.82C80.1548 143.709 79.2148 144.351 79.1729 144.379C79.1601 144.388 79.1502 144.401 79.1445 144.416C79.1387 144.431 79.1373 144.447 79.1404 144.463C79.143 144.478 79.1502 144.492 79.1611 144.502C79.1719 144.513 79.1858 144.52 79.2009 144.523C79.493 144.586 79.7908 144.619 80.0897 144.621ZM80.5132 143.969H80.6156C80.6471 143.976 80.6767 143.989 80.7025 144.009C80.7282 144.028 80.7494 144.053 80.7645 144.081C80.8389 144.211 80.7924 144.267 80.7645 144.286C80.6202 144.481 79.9222 144.481 79.4103 144.397C79.7421 144.177 80.1189 144.034 80.5132 143.979V143.969Z" fill="#407BFF"/>
<path d="M79.215 144.537H79.2522C79.6059 144.342 80.2899 143.606 80.2201 143.215C80.2083 143.155 80.1758 143.101 80.1282 143.062C80.0807 143.023 80.0211 143.001 79.9595 143.001C79.8982 142.995 79.8362 143 79.7771 143.018C79.7179 143.036 79.6629 143.065 79.6152 143.104C79.2196 143.429 79.1498 144.416 79.1498 144.458C79.1479 144.473 79.1504 144.488 79.157 144.501C79.1637 144.514 79.1741 144.525 79.187 144.532C79.1959 144.536 79.2054 144.538 79.215 144.537ZM79.9037 143.141H79.9409C80.048 143.141 80.0573 143.206 80.0619 143.225C80.1038 143.453 79.6664 144.016 79.3173 144.281C79.3417 143.893 79.481 143.52 79.7175 143.211C79.771 143.17 79.8366 143.149 79.9037 143.15V143.141Z" fill="#407BFF"/>
<path d="M100.617 144.621C101.055 144.621 101.478 144.56 101.622 144.365C101.658 144.313 101.677 144.251 101.677 144.188C101.677 144.125 101.658 144.063 101.622 144.011C101.595 143.963 101.559 143.921 101.515 143.889C101.471 143.856 101.42 143.832 101.366 143.82C100.803 143.667 99.6026 144.346 99.5514 144.374C99.5377 144.383 99.5269 144.396 99.5203 144.411C99.5137 144.425 99.5115 144.442 99.5142 144.458C99.5161 144.475 99.5236 144.49 99.5354 144.502C99.5473 144.514 99.5627 144.521 99.5793 144.523C99.9214 144.588 100.269 144.62 100.617 144.621ZM101.162 143.96C101.212 143.953 101.264 143.953 101.315 143.96C101.348 143.966 101.379 143.98 101.406 143.999C101.433 144.018 101.456 144.043 101.473 144.072C101.529 144.174 101.511 144.221 101.473 144.249C101.315 144.463 100.454 144.477 99.812 144.388C100.23 144.162 100.689 144.02 101.162 143.969V143.96Z" fill="#407BFF"/>
<path d="M99.5838 144.537H99.6163C100.031 144.356 100.845 143.606 100.784 143.229C100.784 143.136 100.705 143.025 100.482 143.001C100.399 142.989 100.314 142.995 100.234 143.019C100.153 143.043 100.079 143.085 100.017 143.141C99.5791 143.495 99.4907 144.416 99.486 144.458C99.4842 144.472 99.4863 144.487 99.492 144.5C99.4978 144.513 99.507 144.524 99.5186 144.532C99.5285 144.538 99.5395 144.541 99.5507 144.542C99.5619 144.543 99.5732 144.541 99.5838 144.537ZM100.417 143.141H100.468C100.612 143.141 100.622 143.215 100.626 143.234C100.663 143.467 100.105 144.048 99.6955 144.3C99.7357 143.909 99.8986 143.541 100.161 143.248C100.232 143.187 100.323 143.152 100.417 143.15V143.141Z" fill="#407BFF"/>
<path d="M78.9588 144.058H75.1195C75.051 144.058 74.9847 144.082 74.9314 144.125C74.8781 144.168 74.8411 144.228 74.8263 144.295L74.1516 147.334C74.1361 147.408 74.1376 147.484 74.1559 147.558C74.1741 147.631 74.2087 147.699 74.257 147.758C74.3053 147.816 74.3661 147.862 74.4349 147.894C74.5036 147.925 74.5786 147.94 74.6541 147.939C75.9944 147.916 76.6459 147.837 78.3352 147.837C79.373 147.837 81.5136 147.948 82.9516 147.948C84.3896 147.948 84.5711 146.552 83.9847 146.399C81.3508 145.821 80.3595 145.026 79.5126 144.272C79.3617 144.133 79.1638 144.056 78.9588 144.058Z" fill="#263238"/>
<path d="M99.2209 144.058H95.498C95.4295 144.058 95.3631 144.082 95.3099 144.125C95.2566 144.168 95.2196 144.228 95.2048 144.295L94.53 147.334C94.5139 147.407 94.5145 147.483 94.5319 147.556C94.5493 147.629 94.583 147.697 94.6304 147.756C94.6779 147.814 94.7378 147.861 94.8059 147.892C94.8739 147.924 94.9483 147.94 95.0233 147.939C96.3682 147.916 98.3135 147.837 100.007 147.837C101.985 147.837 103.698 147.948 106.02 147.948C107.416 147.948 107.812 146.552 107.225 146.399C104.549 145.812 102.367 145.752 100.054 144.328C99.8076 144.16 99.5186 144.067 99.2209 144.058Z" fill="#263238"/>
<path d="M104.103 34.7622C105.457 36.7632 106.858 38.6293 108.37 40.4815C109.881 42.3526 111.496 44.1363 113.21 45.8239L113.88 46.4568L114.052 46.615L114.168 46.722L114.341 46.871C114.562 47.0451 114.797 47.2008 115.043 47.3363C115.829 47.7495 116.693 47.9907 117.58 48.0437C118.932 48.1279 120.289 48.0166 121.61 47.7133C124.002 47.1833 126.322 46.3677 128.52 45.2841L127.669 42.8642C125.488 43.298 123.283 43.5979 121.065 43.7623C120.091 43.8416 119.111 43.801 118.147 43.6413C117.871 43.6013 117.607 43.4995 117.375 43.3435V43.3109L117.342 43.2737L117.203 43.1201L116.653 42.5151C115.197 40.8538 113.787 39.0901 112.419 37.2798C111.05 35.4695 109.682 33.6267 108.375 31.8164L104.103 34.7622Z" fill="#9F5B53"/>
<path d="M102.525 35.2972C103.001 38.1843 104.249 40.8889 106.136 43.1247C106.211 41.4866 106.239 40.016 106.234 38.6991L102.525 35.2972Z" fill="#BED3FC"/>
<path d="M91.9984 14.4769C92.2031 17.8648 92.152 19.8565 93.8598 21.597C96.4333 24.2123 100.612 22.658 101.422 19.2702C102.148 16.2267 101.687 11.2007 98.3692 9.85118C97.6394 9.55129 96.845 9.44306 96.0616 9.53678C95.2782 9.6305 94.5317 9.92306 93.8933 10.3866C93.2548 10.8502 92.7455 11.4694 92.4139 12.1853C92.0822 12.9013 91.9392 13.6901 91.9984 14.4769Z" fill="#9F5B53"/>
<path d="M98.5787 12.2245C98.5508 16.208 97.2571 21.0944 93.4039 20.7546C90.8444 20.5313 88.8991 15.8637 88.6339 13.8859C88.229 10.861 88.1685 10.2839 89.8717 9.93491C89.1272 9.53004 88.8573 7.60808 90.5977 7.14272C93.0176 6.50517 97.5782 5.88158 96.1449 4.40637C99.0022 4.92293 99.7189 6.06773 99.1977 7.45917C100.868 7.32887 101.897 6.45398 101.846 5.13234C104.614 6.25387 106.411 12.5968 98.5787 12.2245Z" fill="#263238"/>
<path d="M96.587 15.4635C96.7757 16.285 97.2305 17.0212 97.8807 17.5576C98.7416 18.2557 99.4304 17.6321 99.4117 16.6269C99.4117 15.7195 98.9184 14.2629 97.9505 13.9557C96.9825 13.6486 96.3496 14.4723 96.587 15.4635Z" fill="#9F5B53"/>
<path d="M87.2796 10.6284C87.7351 10.3383 88.2555 10.1661 88.7941 10.1271C89.3327 10.0881 89.8725 10.1836 90.365 10.405C90.365 10.405 88.4291 7.80359 87.2796 10.6284Z" fill="#263238"/>
<path d="M82.1605 137.524C82.1885 137.524 81.5137 139.93 81.5137 139.93H74.4681L74.5984 137.785L82.1605 137.524Z" fill="#407BFF"/>
<path d="M101.794 137.524C101.822 137.524 101.469 139.93 101.469 139.93H94.4229L94.2321 137.785L101.794 137.524Z" fill="#407BFF"/>
<path d="M99.4768 135.672C99.4908 135.672 99.5044 135.667 99.5147 135.657C99.5251 135.648 99.5315 135.635 99.5327 135.621C100.556 125.792 102.962 102.012 103.256 93.4819C103.567 84.7749 103.283 65.2389 103.19 59.459C103.19 59.4265 103.163 59.4079 103.13 59.4032C103.115 59.4043 103.102 59.4105 103.092 59.4208C103.081 59.431 103.075 59.4446 103.074 59.459C103.167 65.2389 103.451 84.7749 103.139 93.4772C102.837 102.007 100.431 125.778 99.4163 135.607C99.4161 135.622 99.4217 135.638 99.432 135.65C99.4423 135.662 99.4565 135.67 99.4722 135.672H99.4768Z" fill="#407BFF"/>
<path opacity="0.3" d="M99.4768 135.672C99.4908 135.672 99.5044 135.667 99.5147 135.657C99.5251 135.648 99.5315 135.635 99.5327 135.621C100.556 125.792 102.962 102.012 103.256 93.4819C103.567 84.7749 103.283 65.2389 103.19 59.459C103.19 59.4265 103.163 59.4079 103.13 59.4032C103.115 59.4043 103.102 59.4105 103.092 59.4208C103.081 59.431 103.075 59.4446 103.074 59.459C103.167 65.2389 103.451 84.7749 103.139 93.4772C102.837 102.007 100.431 125.778 99.4163 135.607C99.4161 135.622 99.4217 135.638 99.432 135.65C99.4423 135.662 99.4565 135.67 99.4722 135.672H99.4768Z" fill="black"/>
<path d="M100.947 30.7134C100.482 33.971 106.876 42.2219 106.876 42.2219L113.284 37.8102C113.284 37.8102 111.506 33.2543 108.514 30.2667C105.098 26.8835 101.441 27.1906 100.947 30.7134Z" fill="#407BFF"/>
<path opacity="0.8" d="M100.947 30.7134C100.482 33.971 106.876 42.2219 106.876 42.2219L113.284 37.8102C113.284 37.8102 111.506 33.2543 108.514 30.2667C105.098 26.8835 101.441 27.1906 100.947 30.7134Z" fill="white"/>
<path d="M104.554 27.9445C104.554 27.9445 108.193 32.0537 104.759 57.4952H86.47C86.3443 54.703 88.1081 40.9934 85.4043 27.7677C87.4254 27.3785 89.4695 27.1205 91.5238 26.9952C94.1122 26.8462 96.7071 26.8462 99.2954 26.9952C101.07 27.174 102.829 27.4914 104.554 27.9445Z" fill="#407BFF"/>
<path opacity="0.8" d="M104.554 27.9445C104.554 27.9445 108.193 32.0537 104.759 57.4952H86.47C86.3443 54.703 88.1081 40.9934 85.4043 27.7677C87.4254 27.3785 89.4695 27.1205 91.5238 26.9952C94.1122 26.8462 96.7071 26.8462 99.2954 26.9952C101.07 27.174 102.829 27.4914 104.554 27.9445Z" fill="white"/>
<path d="M130.221 43.9807L133.645 42.8369L134.422 47.1356C134.422 47.1356 131.707 47.9353 129.82 46.3115L130.221 43.9807Z" fill="#9F5B53"/>
<path d="M137.361 43.1674L136.703 46.9072L134.423 47.1356L133.645 42.8368L137.361 43.1674Z" fill="#9F5B53"/>
<path d="M167.563 59.1246C167.664 58.4821 167.625 57.8255 167.447 57.1997C167.27 56.574 166.96 55.994 166.537 55.4997C166.115 55.0053 165.59 54.6083 165 54.3359C164.409 54.0635 163.767 53.9221 163.117 53.9216L166.264 53.9242C167.422 53.9386 168.543 53.5164 169.404 52.7416C170.264 51.9668 170.802 50.8962 170.909 49.7431C170.95 49.1273 170.865 48.5096 170.658 47.9281C170.451 47.3467 170.127 46.8138 169.707 46.3624C169.286 45.911 168.777 45.5506 168.211 45.3037C167.646 45.0567 167.035 44.9284 166.418 44.9265L169.563 44.9332C170.722 44.9482 171.844 44.5256 172.706 43.7499C173.567 42.9742 174.104 41.9023 174.21 40.748C174.254 40.1281 174.17 39.5057 173.962 38.92C173.754 38.3343 173.428 37.7978 173.003 37.3443C172.578 36.8908 172.064 36.53 171.493 36.2846C170.922 36.0393 170.306 35.9146 169.685 35.9184L184.647 35.8956C185.737 35.9139 186.798 35.5433 187.64 34.8502C188.482 34.1571 189.05 33.1868 189.241 32.1133C189.341 31.4705 189.3 30.8139 189.122 30.1883C188.945 29.5627 188.634 28.9829 188.211 28.4886C187.788 27.9943 187.264 27.5971 186.674 27.3243C186.083 27.0516 185.441 26.9096 184.79 26.9081L153.283 26.9522L161.261 17.8438C162.058 16.9261 162.476 15.7404 162.433 14.526C162.389 13.3116 161.886 12.1591 161.026 11.3011C160.165 10.443 159.011 9.94351 157.797 9.9033C156.582 9.8631 155.397 10.2852 154.482 11.0845L135.367 27.9498C133.732 29.3906 131.629 30.1877 129.45 30.1926L127.649 30.1938C127.373 30.1938 127.1 30.2484 126.846 30.3543C126.591 30.4603 126.36 30.6155 126.165 30.8111C125.97 31.0066 125.816 31.2387 125.712 31.494C125.607 31.7493 125.554 32.0227 125.556 32.2986L125.601 56.3819C125.602 56.9386 125.825 57.4721 126.219 57.8653C126.613 58.2586 127.147 58.4795 127.704 58.4797L132.125 58.4745C133.793 58.4848 135.427 58.9481 136.852 59.8148C140.317 61.8739 144.275 62.957 148.306 62.9493L163.01 62.9284C164.096 62.936 165.15 62.5579 165.984 61.8614C166.818 61.1648 167.377 60.195 167.563 59.1246Z" fill="#407BFF"/>
<path d="M126.392 58.8409C126.792 59.0494 127.236 59.1582 127.686 59.158L132.107 59.1528C133.649 59.1637 135.161 59.5887 136.483 60.3831C140.056 62.5072 144.136 63.6254 148.293 63.6193L162.997 63.5984C164.251 63.6077 165.467 63.1723 166.43 62.3694C167.393 61.5665 168.041 60.4482 168.257 59.2132C168.374 58.4703 168.329 57.7108 168.123 56.9874C167.917 56.2639 167.556 55.594 167.066 55.0241C166.934 54.8672 166.792 54.7195 166.64 54.582C167.906 54.5064 169.103 53.9784 170.013 53.0942C170.922 52.21 171.484 51.0285 171.595 49.765C171.649 49.0525 171.554 48.3365 171.314 47.6632C171.075 46.9899 170.697 46.3742 170.206 45.8557C170.114 45.7605 170.021 45.6653 169.925 45.5783C171.192 45.5036 172.389 44.9759 173.299 44.0916C174.208 43.2072 174.77 42.0252 174.88 40.7613C174.934 40.0493 174.837 39.3341 174.597 38.6615C174.358 37.989 173.98 37.374 173.489 36.8561C173.405 36.7652 173.315 36.6763 173.226 36.5937L184.654 36.5763C185.908 36.5856 187.124 36.1502 188.087 35.3473C189.05 34.5444 189.698 33.4261 189.914 32.1911C190.029 31.4491 189.982 30.691 189.777 29.9687C189.572 29.2464 189.213 28.577 188.725 28.0063C188.237 27.4356 187.631 26.9771 186.95 26.6621C186.268 26.3471 185.526 26.1832 184.776 26.1815L154.789 26.2364L161.759 18.2872C162.67 17.2354 163.148 15.8771 163.096 14.4868C163.044 13.0964 162.466 11.7777 161.479 10.797C160.492 9.81635 159.17 9.24686 157.779 9.20364C156.388 9.16042 155.033 9.64668 153.987 10.5642L134.872 27.4295C133.364 28.7585 131.424 29.4933 129.414 29.4968L127.617 29.5001C127.25 29.5001 126.886 29.5726 126.547 29.7135C126.207 29.8544 125.899 30.0608 125.64 30.321C125.38 30.5812 125.175 30.89 125.035 31.2298C124.895 31.5695 124.824 31.9336 124.825 32.301L124.868 56.3884C124.875 56.8973 125.02 57.3947 125.289 57.827C125.557 58.2592 125.939 58.6098 126.392 58.8409ZM136.664 58.8979C135.258 58.1559 133.695 57.7642 132.105 57.7561L127.684 57.7613C127.5 57.7627 127.317 57.7275 127.146 57.6578C126.975 57.588 126.82 57.4851 126.689 57.355C126.558 57.2249 126.455 57.0701 126.384 56.8997C126.313 56.7292 126.277 56.5465 126.278 56.362L126.235 32.2745C126.234 32.0904 126.27 31.908 126.34 31.7378C126.41 31.5676 126.514 31.4129 126.644 31.2828C126.774 31.1526 126.929 31.0495 127.099 30.9794C127.269 30.9093 127.452 30.8735 127.636 30.8742L129.432 30.8709C131.775 30.8649 134.036 30.0059 135.792 28.4544L154.911 11.5912C155.69 10.8923 156.707 10.5182 157.753 10.5457C158.799 10.5732 159.795 11.0001 160.536 11.7389C161.278 12.4777 161.708 13.4723 161.739 14.5184C161.77 15.5645 161.399 16.5827 160.703 17.3641L152.714 26.4724C152.626 26.5728 152.568 26.6965 152.549 26.8288C152.529 26.961 152.548 27.0961 152.604 27.2178C152.658 27.3408 152.747 27.4453 152.861 27.5182C152.974 27.5911 153.106 27.6293 153.24 27.628L184.748 27.5839C185.296 27.5844 185.838 27.7036 186.336 27.9332C186.835 28.1628 187.277 28.4975 187.634 28.9143C187.998 29.3304 188.265 29.8223 188.415 30.3545C188.565 30.8866 188.595 31.4455 188.502 31.9906C188.341 32.9018 187.861 33.7259 187.148 34.3156C186.435 34.9054 185.535 35.2225 184.61 35.2102L169.644 35.2308C169.459 35.231 169.281 35.3048 169.151 35.436C169.02 35.5671 168.946 35.7448 168.947 35.93C168.947 36.0217 168.965 36.1125 169 36.1972C169.035 36.2819 169.087 36.3588 169.152 36.4236C169.283 36.5544 169.461 36.6277 169.646 36.6275C170.167 36.6284 170.683 36.7364 171.161 36.9449C171.639 37.1534 172.07 37.4579 172.425 37.8396C172.784 38.2185 173.061 38.6683 173.236 39.1601C173.412 39.6519 173.483 40.1749 173.445 40.6957C173.353 41.6734 172.897 42.5806 172.166 43.2366C171.435 43.8925 170.484 44.249 169.502 44.235L166.355 44.2324C166.179 44.2454 166.014 44.3246 165.894 44.4542C165.774 44.5837 165.708 44.7539 165.708 44.9304C165.709 45.107 165.776 45.2768 165.897 45.4056C166.018 45.5345 166.183 45.6129 166.359 45.6249C166.879 45.6263 167.394 45.7344 167.872 45.9425C168.349 46.1506 168.779 46.4543 169.134 46.8348C169.493 47.2148 169.769 47.6653 169.944 48.1578C170.119 48.6502 170.19 49.1738 170.152 49.6951C170.059 50.6717 169.602 51.5776 168.872 52.2326C168.142 52.8876 167.192 53.2438 166.211 53.2302L163.064 53.2276C162.879 53.2278 162.701 53.3016 162.57 53.4327C162.439 53.5638 162.366 53.7416 162.366 53.9268C162.367 54.112 162.44 54.2895 162.571 54.4203C162.703 54.5511 162.88 54.6245 163.065 54.6243C163.614 54.6268 164.155 54.7473 164.652 54.9776C165.15 55.2079 165.592 55.5425 165.949 55.9588C166.31 56.376 166.575 56.8679 166.725 57.3993C166.874 57.9307 166.904 58.4885 166.813 59.033C166.653 59.9445 166.173 60.7692 165.46 61.3591C164.747 61.9491 163.847 62.2658 162.921 62.2525L148.218 62.2734C144.331 62.2608 140.519 61.2044 137.181 59.2146C136.999 59.12 136.837 58.9986 136.659 58.9061L136.664 58.8979Z" fill="#407BFF"/>
<path d="M158.862 54.5437C158.963 54.5969 159.074 54.6245 159.188 54.6241L163.095 54.6081C163.187 54.608 163.277 54.5898 163.362 54.5547C163.447 54.5195 163.524 54.4679 163.589 54.403C163.653 54.3381 163.705 54.261 163.74 54.1763C163.775 54.0915 163.793 54.0007 163.792 53.909C163.792 53.8172 163.774 53.7265 163.739 53.6418C163.704 53.5571 163.652 53.4802 163.587 53.4154C163.522 53.3506 163.445 53.2993 163.361 53.2643C163.276 53.2293 163.185 53.2113 163.093 53.2114L159.17 53.2188C159.014 53.2188 158.862 53.2712 158.739 53.3675C158.616 53.4638 158.529 53.5985 158.492 53.7501C158.455 53.9016 158.469 54.0613 158.533 54.2036C158.598 54.3459 158.708 54.4626 158.846 54.5351L158.862 54.5437Z" fill="#407BFF"/>
<path d="M162.147 45.54C162.247 45.5937 162.359 45.6214 162.473 45.6204L166.396 45.613C166.492 45.6196 166.588 45.6064 166.678 45.5742C166.769 45.5421 166.851 45.4916 166.921 45.4261C166.991 45.3606 167.047 45.2814 167.085 45.1934C167.123 45.1054 167.142 45.0106 167.142 44.9147C167.142 44.8189 167.122 44.7241 167.083 44.6363C167.045 44.5485 166.989 44.4696 166.918 44.4045C166.848 44.3394 166.765 44.2894 166.675 44.2578C166.584 44.2261 166.488 44.2134 166.393 44.2205L162.471 44.2237C162.315 44.2237 162.163 44.2761 162.041 44.3724C161.918 44.4687 161.831 44.6034 161.794 44.755C161.756 44.9065 161.771 45.0662 161.835 45.2085C161.899 45.3508 162.009 45.4675 162.147 45.54Z" fill="#407BFF"/>
<path d="M165.434 36.5426C165.534 36.5931 165.644 36.6198 165.756 36.6208L169.679 36.6135C169.771 36.6134 169.862 36.5952 169.947 36.56C170.031 36.5248 170.108 36.4733 170.173 36.4084C170.238 36.3434 170.289 36.2664 170.324 36.1816C170.359 36.0969 170.377 36.006 170.377 35.9143C170.377 35.8226 170.359 35.7318 170.323 35.6471C170.288 35.5625 170.237 35.4855 170.172 35.4208C170.107 35.356 170.03 35.3046 169.945 35.2696C169.86 35.2347 169.769 35.2167 169.678 35.2168L165.754 35.2241C165.598 35.2242 165.446 35.2768 165.323 35.3736C165.2 35.4703 165.113 35.6056 165.076 35.7577C165.039 35.9098 165.054 36.0698 165.119 36.2122C165.184 36.3545 165.295 36.4709 165.434 36.5426Z" fill="#407BFF"/>
<path opacity="0.3" d="M126.392 58.8409C126.792 59.0494 127.236 59.1582 127.686 59.158L132.107 59.1528C133.649 59.1637 135.161 59.5887 136.483 60.3831C140.056 62.5072 144.136 63.6254 148.293 63.6193L162.997 63.5984C164.251 63.6077 165.467 63.1723 166.43 62.3694C167.393 61.5665 168.041 60.4482 168.257 59.2132C168.374 58.4703 168.329 57.7108 168.123 56.9874C167.917 56.2639 167.556 55.594 167.066 55.0241C166.934 54.8672 166.792 54.7195 166.64 54.582C167.906 54.5064 169.103 53.9784 170.013 53.0942C170.922 52.21 171.484 51.0285 171.595 49.765C171.649 49.0525 171.554 48.3365 171.314 47.6632C171.075 46.9899 170.697 46.3742 170.206 45.8557C170.114 45.7605 170.021 45.6653 169.925 45.5783C171.192 45.5036 172.389 44.9759 173.299 44.0916C174.208 43.2072 174.77 42.0252 174.88 40.7613C174.934 40.0493 174.837 39.3341 174.597 38.6615C174.358 37.989 173.98 37.374 173.489 36.8561C173.405 36.7652 173.315 36.6763 173.226 36.5937L184.654 36.5763C185.908 36.5856 187.124 36.1502 188.087 35.3473C189.05 34.5444 189.698 33.4261 189.914 32.1911C190.029 31.4491 189.982 30.691 189.777 29.9687C189.572 29.2464 189.213 28.577 188.725 28.0063C188.237 27.4356 187.631 26.9771 186.95 26.6621C186.268 26.3471 185.526 26.1832 184.776 26.1815L154.789 26.2364L161.759 18.2872C162.67 17.2354 163.148 15.8771 163.096 14.4868C163.044 13.0964 162.466 11.7777 161.479 10.797C160.492 9.81635 159.17 9.24686 157.779 9.20364C156.388 9.16042 155.033 9.64668 153.987 10.5642L134.872 27.4295C133.364 28.7585 131.424 29.4933 129.414 29.4968L127.617 29.5001C127.25 29.5001 126.886 29.5726 126.547 29.7135C126.207 29.8544 125.899 30.0608 125.64 30.321C125.38 30.5812 125.175 30.89 125.035 31.2298C124.895 31.5695 124.824 31.9336 124.825 32.301L124.868 56.3884C124.875 56.8973 125.02 57.3947 125.289 57.827C125.557 58.2592 125.939 58.6098 126.392 58.8409ZM136.664 58.8979C135.258 58.1559 133.695 57.7642 132.105 57.7561L127.684 57.7613C127.5 57.7627 127.317 57.7275 127.146 57.6578C126.975 57.588 126.82 57.4851 126.689 57.355C126.558 57.2249 126.455 57.0701 126.384 56.8997C126.313 56.7292 126.277 56.5465 126.278 56.362L126.235 32.2745C126.234 32.0904 126.27 31.908 126.34 31.7378C126.41 31.5676 126.514 31.4129 126.644 31.2828C126.774 31.1526 126.929 31.0495 127.099 30.9794C127.269 30.9093 127.452 30.8735 127.636 30.8742L129.432 30.8709C131.775 30.8649 134.036 30.0059 135.792 28.4544L154.911 11.5912C155.69 10.8923 156.707 10.5182 157.753 10.5457C158.799 10.5732 159.795 11.0001 160.536 11.7389C161.278 12.4777 161.708 13.4723 161.739 14.5184C161.77 15.5645 161.399 16.5827 160.703 17.3641L152.714 26.4724C152.626 26.5728 152.568 26.6965 152.549 26.8288C152.529 26.961 152.548 27.0961 152.604 27.2178C152.658 27.3408 152.747 27.4453 152.861 27.5182C152.974 27.5911 153.106 27.6293 153.24 27.628L184.748 27.5839C185.296 27.5844 185.838 27.7036 186.336 27.9332C186.835 28.1628 187.277 28.4975 187.634 28.9143C187.998 29.3304 188.265 29.8223 188.415 30.3545C188.565 30.8866 188.595 31.4455 188.502 31.9906C188.341 32.9018 187.861 33.7259 187.148 34.3156C186.435 34.9054 185.535 35.2225 184.61 35.2102L169.644 35.2308C169.459 35.231 169.281 35.3048 169.151 35.436C169.02 35.5671 168.946 35.7448 168.947 35.93C168.947 36.0217 168.965 36.1125 169 36.1972C169.035 36.2819 169.087 36.3588 169.152 36.4236C169.283 36.5544 169.461 36.6277 169.646 36.6275C170.167 36.6284 170.683 36.7364 171.161 36.9449C171.639 37.1534 172.07 37.4579 172.425 37.8396C172.784 38.2185 173.061 38.6683 173.236 39.1601C173.412 39.6519 173.483 40.1749 173.445 40.6957C173.353 41.6734 172.897 42.5806 172.166 43.2366C171.435 43.8925 170.484 44.249 169.502 44.235L166.355 44.2324C166.179 44.2454 166.014 44.3246 165.894 44.4542C165.774 44.5837 165.708 44.7539 165.708 44.9304C165.709 45.107 165.776 45.2768 165.897 45.4056C166.018 45.5345 166.183 45.6129 166.359 45.6249C166.879 45.6263 167.394 45.7344 167.872 45.9425C168.349 46.1506 168.779 46.4543 169.134 46.8348C169.493 47.2148 169.769 47.6653 169.944 48.1578C170.119 48.6502 170.19 49.1738 170.152 49.6951C170.059 50.6717 169.602 51.5776 168.872 52.2326C168.142 52.8876 167.192 53.2438 166.211 53.2302L163.064 53.2276C162.879 53.2278 162.701 53.3016 162.57 53.4327C162.439 53.5638 162.366 53.7416 162.366 53.9268C162.367 54.112 162.44 54.2895 162.571 54.4203C162.703 54.5511 162.88 54.6245 163.065 54.6243C163.614 54.6268 164.155 54.7473 164.652 54.9776C165.15 55.2079 165.592 55.5425 165.949 55.9588C166.31 56.376 166.575 56.8679 166.725 57.3993C166.874 57.9307 166.904 58.4885 166.813 59.033C166.653 59.9445 166.173 60.7692 165.46 61.3591C164.747 61.9491 163.847 62.2658 162.921 62.2525L148.218 62.2734C144.331 62.2608 140.519 61.2044 137.181 59.2146C136.999 59.12 136.837 58.9986 136.659 58.9061L136.664 58.8979Z" fill="black"/>
</svg>
