<svg width="27" height="24" viewBox="0 0 27 24" fill="none" xmlns="http://www.w3.org/2000/svg">
<path d="M0.866181 7.11257e-05C0.741381 -0.00153849 0.617741 0.0241895 0.503943 0.075449C0.390144 0.126708 0.288945 0.202257 0.207452 0.296789C0.125958 0.391322 0.0661447 0.502548 0.0322117 0.622657C-0.00172127 0.742766 -0.00895156 0.868847 0.0110285 0.992048L3.64115 23.0293C3.68638 23.299 3.82518 23.5441 4.03318 23.7216C4.24118 23.8991 4.50507 23.9977 4.7785 23.9999H22.1937C22.3987 24.0026 22.5978 23.9315 22.7547 23.7996C22.9117 23.6678 23.0161 23.484 23.0488 23.2816L26.679 0.996324C26.6989 0.873123 26.6917 0.747042 26.6578 0.626933C26.6238 0.506823 26.564 0.395598 26.4825 0.301065C26.401 0.206533 26.2998 0.130984 26.186 0.0797248C26.0722 0.0284653 25.9486 0.00273717 25.8238 0.00434678L0.866181 7.11257e-05ZM16.152 15.9273H10.5935L9.08847 8.06416H17.4989L16.152 15.9273Z" fill="#3A32BA"/>
</svg>
