<svg width="59" height="58" viewBox="0 0 59 58" fill="none" xmlns="http://www.w3.org/2000/svg">
<rect width="58.3491" height="58" rx="6.04167" fill="#FFCC00"/>
<path d="M21.729 31.4829L14.9089 35.9291L16.9409 42.0868L17.6643 49.678L22.0075 51.2406L30.2479 51.0735L38.0425 49.7442L37.0034 43.7652L39.0975 43.5154L41.8885 34.0944L37.9315 30.621L34.5107 33.9281L31.7048 34.7148L27.35 34.3467L24.0353 33.613L21.729 31.4829Z" fill="#1F1C16"/>
<path d="M21.7291 31.4812L23.3193 32.9785C23.3193 32.9785 21.4299 34.5501 19.4808 35.3393C17.4547 36.1665 17.0594 36.8283 17.0594 36.8283C17.0594 36.8283 18.2105 39.1064 18.9654 42.5731C19.3134 44.1663 19.4328 49.4083 19.4328 49.4083C19.4328 49.4083 24.912 50.9734 27.4934 50.3629C28.1332 50.2115 29.0936 51.0983 29.0936 51.0983L22.6862 51.2414L17.8757 49.9518L17.497 45.0026L16.6219 40.3438L15.0474 35.6288L21.7291 31.4812Z" fill="#2D2F2D"/>
<path d="M36.2019 32.5567L33.4954 34.3352L28.2407 34.542L24.7718 33.7876L23.586 32.8206L22.0504 31.1505L20.8488 27.759L20.582 27.0261L18.9801 26.4925L18.0454 24.9606L17.3774 22.761L18.1125 20.8287L19.8478 20.229L21.2491 20.8932L21.917 22.359L22.7183 22.2258L22.9852 21.895L22.7183 20.363L22.6512 18.4306L23.0515 15.7646L23.0357 14.2417L24.2531 12.2994L26.3894 10.7666L30.1276 9.16766L34.2661 9.76738L37.8709 12.3656L39.5398 15.0309L40.6072 16.9632L40.874 21.7609L40.0735 25.892L38.6051 29.5573L37.2029 31.4896L36.2019 32.5567Z" fill="#F0D6B7"/>
<path d="M18.1121 20.8253L19.8474 20.2256L21.2487 20.8931L21.9166 22.3589L22.718 22.2257L22.9177 21.4258L22.5174 19.8939L22.9177 16.2285L22.5862 14.23L23.7878 12.8304L26.3916 10.7624L25.6573 9.76315L21.9821 11.564L20.4474 12.7634L19.5789 14.6287L18.2447 16.4262L17.8445 18.5604L18.1121 20.8253Z" fill="#6D6B6D"/>
<path d="M20.8483 14.5627C20.8483 14.5627 21.8494 12.0968 25.8544 10.8974C29.8594 9.69796 26.0549 10.0313 26.0549 10.0313L21.7159 11.6973L20.047 13.3658L19.3127 14.6984L20.8483 14.5652" fill="#DCD9D8"/>
<path d="M32.6955 34.7523C29.8266 35.1658 25.4751 34.7647 23.5128 33.6016C23.0413 33.3228 21.9441 32.1954 21.7726 32.264C19.5533 33.1359 17.4758 34.6513 15.6196 36.0816C17.3896 39.8718 18.1056 45.1559 18.2299 49.6327C20.2577 50.5791 21.7585 51.0291 25.4304 50.967C30.6395 50.8793 32.5364 50.517 34.9793 50.0844C35.7647 49.9334 36.5367 49.7201 37.2881 49.4466C37.0759 47.6905 36.3624 46.9468 35.9315 45.3933C35.4343 45.3983 23.2286 45.3751 21.6698 44.9847C21.6648 44.2071 22.6576 44.6439 22.7405 44.1211C22.8026 43.7249 22.1944 43.6951 22.3924 43.0722C22.8979 43.255 23.1639 43.6604 23.7026 43.8126C24.1998 42.7372 23.6959 40.8346 23.7672 39.933C23.7805 39.7676 23.8501 38.9974 24.2304 39.1314C24.5661 39.2506 24.2114 41.1713 24.2478 42.0225C24.2818 42.8067 24.165 43.9044 24.4873 44.3966C27.3173 44.6009 32.7303 45.036 35.6066 44.9574C35.6066 44.9574 37.5889 43.413 38.512 43.0482C38.8493 42.9151 39.0921 42.1441 39.3482 41.5278C40.0509 39.8321 40.7884 37.6938 41.1158 36.0749C41.1903 35.706 41.3917 34.9028 41.347 34.5744C41.2641 33.9863 40.4669 33.5512 40.0608 33.1872C39.315 32.5163 38.841 31.9257 38.0604 31.2979C37.7438 31.7644 35.8751 34.294 32.6946 34.7523H32.6955ZM19.1191 16.0724C18.2374 17.0411 18.4213 18.856 18.5282 20.1472C20.1226 19.1463 22.2383 20.2299 22.2184 21.929C22.98 21.9092 22.5026 20.9802 22.3651 20.3821C21.9151 18.4275 23.1233 16.3049 22.4198 14.5173C21.0549 14.6207 19.9337 15.1791 19.1191 16.0724ZM25.4295 10.4475C23.4332 11.0125 20.8718 12.4609 20.0539 14.2526C20.6886 14.1608 21.1312 13.839 21.7568 13.8009C21.9938 13.7861 22.3037 13.9002 22.5764 13.8324C23.1183 13.6984 23.5766 12.484 23.9851 12.0324C24.3937 11.5807 24.8636 11.4029 25.1917 11.0009C25.4022 10.8991 25.7138 10.9057 25.7262 10.5873C25.6359 10.493 25.5389 10.4185 25.4295 10.45V10.4475ZM32.6308 34.2113C33.8018 34.016 34.5236 33.4866 34.9992 33.1764C33.9136 33.5793 30.85 33.6405 29.3898 32.8116C28.5612 32.3418 27.5228 31.6139 26.8416 30.8644C26.0594 30.0033 25.2671 29.0801 25.2265 27.9552C26.7049 30.0033 27.9272 31.7917 30.613 32.6925C32.6482 33.3741 35.0249 32.7 36.5886 31.6039C37.2375 31.149 37.7844 30.1059 38.246 29.4441C39.9647 26.5398 40.6169 23.4304 40.4395 20.0025C40.3666 18.5888 40.3699 17.1801 39.8943 16.2288C39.3971 15.2361 37.7181 14.3444 36.7353 15.2436C36.553 14.2766 37.5524 13.6785 38.7242 14.0268C37.893 12.9522 37.0138 11.6519 35.8213 10.981C33.7496 9.81385 30.2409 8.93619 28.0366 10.0331C26.2574 10.9182 23.8534 12.3831 23.033 14.2394C23.7987 16.0311 22.8068 17.6722 22.7429 19.4904C22.7098 20.4582 23.1996 21.3028 23.2402 22.3567C22.9783 22.7885 22.1778 22.8414 21.6234 22.8116C21.4369 21.8802 21.1104 20.8321 20.1492 20.7271C18.7885 20.579 17.794 21.7024 17.7319 22.8778C17.659 24.2592 18.7951 26.5481 20.4044 26.3893C21.0267 26.3272 21.1792 25.7052 21.8571 25.7118C22.2242 26.443 21.2903 26.673 21.1941 27.1958C21.1693 27.3314 21.272 27.8575 21.3317 28.1057C21.6242 29.3118 22.2756 30.8727 22.917 31.7909C23.7316 32.9556 24.4757 33.4693 26.1803 33.7323C27.9239 34.002 31.0356 34.4768 32.6308 34.2113ZM37.5681 44.1666C37.2267 44.787 38.9123 49.3738 37.8714 49.9314C36.6375 50.4384 23.5857 53.1136 18.9832 50.7478C18.4031 50.4781 17.5935 50.3292 17.3755 49.866C17.1642 49.4177 17.2504 48.5582 17.1982 47.7459C17.0648 45.6713 16.9496 43.6703 16.4018 41.5469C16.1532 40.5939 15.7256 39.7527 15.4265 38.8345C15.1497 37.9833 14.6657 36.9319 14.5398 36.0824C14.3525 34.8242 15.5392 34.7547 16.2974 34.2113C17.4708 33.3683 18.3915 32.9018 19.6619 32.1433C20.0381 31.9174 21.1726 31.3475 21.3019 31.0844C21.3955 30.6245 20.4732 28.248 20.1848 27.5912C19.7084 27.5126 19.2532 27.3377 18.8471 27.077C18.4409 26.8164 18.0924 26.4757 17.823 26.0758C17.0159 24.8945 16.4557 22.7091 17.1543 21.0464C17.209 20.9157 17.4858 20.6576 17.5222 20.4566C17.6051 20.0604 17.3731 19.5343 17.3565 19.1132C17.2827 16.9517 17.7228 15.0906 19.1796 14.4387C19.7713 12.0862 21.8886 11.3036 23.884 10.1373C24.6299 9.70052 25.4519 9.42093 26.3005 9.10907C29.3459 7.98987 34.0189 8.19915 36.5464 10.1092C37.6187 10.9182 39.3316 12.6272 39.944 13.8638C41.5624 17.1296 41.4481 22.5875 40.3161 26.5597C40.1636 27.0932 39.9432 27.8774 39.6349 28.5177C39.4194 28.9652 38.7523 29.8602 38.8327 30.2548C38.9131 30.6493 40.3559 31.7537 40.6641 32.0506C41.2202 32.5858 42.2759 33.2964 42.3613 33.9714C42.4533 34.6902 42.0439 35.6729 41.8367 36.3703C41.1439 38.6864 40.2191 41.5601 39.4335 43.624L37.5681 44.1666Z" fill="black"/>
<path d="M18.8455 20.3595C18.8455 20.3595 17.4442 15.695 22.7843 15.0282L22.5837 14.2292L18.916 15.0952L17.8445 18.5604L18.1121 20.8252L18.8455 20.3595Z" fill="#DCD9D8"/>
<path d="M20.9824 26.5564L21.8567 25.711C21.8567 25.711 22.2511 25.7565 22.3174 26.223C22.3837 26.6895 23.2547 31.6403 26.1294 33.906C26.3913 34.1128 23.3235 32.8199 23.3235 32.8199L21.183 29.488" fill="#F7E4CD"/>
<path d="M33.2644 25.2897C33.2644 25.2897 33.4202 23.2705 33.9647 23.4261C34.1186 23.4689 34.2546 23.5599 34.3528 23.6858C34.451 23.8116 34.506 23.9656 34.5099 24.125C34.5099 24.125 33.184 24.9795 33.2669 25.2897" fill="#F7E4CD"/>
<path d="M38.8045 17.8934C38.8045 17.8934 37.7048 18.1259 37.6037 19.0929C37.5026 20.0599 38.8045 19.2931 39.005 19.2261" fill="#F7E4CD"/>
<path d="M30.728 17.9607C30.728 17.9607 29.2588 18.1608 29.2588 19.0931C29.2588 20.0254 30.9278 19.96 31.3951 19.5596" fill="#F7E4CD"/>
<path d="M21.6511 22.2921C21.6511 22.2921 19.1145 20.7593 18.8468 22.2251C18.5792 23.6909 17.9792 24.7571 19.2479 26.2899L18.3795 26.0219L17.5781 23.9539L17.3113 21.9546L18.846 20.3556L20.5821 20.4888L21.5832 21.2878L21.6503 22.2879" fill="#F7E4CD"/>
<path d="M38.3379 13.03C38.3379 13.03 36.4021 12.963 36.335 14.696C36.3416 14.8809 36.3871 15.0624 36.4684 15.2287C36.4684 15.2287 38.0039 13.4966 38.9387 14.4288" fill="#F7E4CD"/>
<path d="M29.8617 15.4091C29.8617 15.4091 29.5303 12.7505 27.2572 14.2957C25.7887 15.2958 25.9222 16.6946 26.189 16.9609C26.4558 17.2273 26.3837 17.765 26.5868 17.396C26.7898 17.0271 26.7227 15.8285 27.4577 15.4935C28.1928 15.1585 29.3952 14.7887 29.8609 15.4108" fill="#F7E4CD"/>
<path d="M29.8617 15.4088C28.0386 14.9861 27.1378 16.169 26.5868 17.3941C26.0945 17.275 26.2901 16.6066 26.4144 16.2658C26.7401 15.3724 28.0527 14.1821 29.125 14.3434C29.5866 14.4129 30.2106 14.8339 29.8617 15.4072" fill="black"/>
<path d="M38.7262 17.4765L38.8091 17.4806C39.2234 18.3326 39.5764 19.2359 40.0952 19.9887C39.7472 20.796 37.4641 21.5107 37.4989 20.0606C37.9961 19.8456 38.8455 20.0168 39.2831 19.7413C39.0303 19.0481 38.6649 18.4575 38.7229 17.4765" fill="black"/>
<path d="M30.7929 17.5016C31.1832 18.2155 31.31 18.9657 31.8644 19.5051C32.113 19.7483 32.5994 20.0444 32.3616 20.7194C32.3052 20.879 31.8942 21.2339 31.6564 21.3042C30.7896 21.559 28.7701 21.3563 29.4537 20.2777C30.1705 20.3108 31.1343 20.7426 31.6705 20.2231C31.2561 19.5663 30.5252 18.2676 30.7954 17.5016" fill="black"/>
<path d="M38.4004 24.7547C37.0952 25.5919 35.64 26.5018 33.5012 26.2909C33.0446 25.8938 32.8697 25.0112 33.3139 24.4288C33.5451 24.8251 33.3967 25.5546 34.0439 25.6647C35.2571 25.8715 36.6701 24.9202 37.5427 24.5893C38.0838 23.6794 37.4963 23.3435 37.0082 22.7571C36.0137 21.556 34.6713 20.067 34.7193 18.2687C35.1229 17.9767 35.1577 18.7145 35.2165 18.8477C35.7378 20.0654 37.0496 21.6221 38.0076 22.6644C38.2421 22.9217 38.6299 23.1673 38.6705 23.3378C38.794 23.8341 38.3473 24.4222 38.3987 24.7506" fill="black"/>
<path d="M21.1926 23.8711C20.7841 23.6378 20.6863 22.6113 20.2065 22.5815C19.5195 22.5401 19.6446 23.9141 19.6479 24.7173C19.1747 24.2888 19.0919 22.9703 19.4391 22.2936C19.0438 22.0992 18.8665 22.507 18.6477 22.651C18.9295 20.6061 21.6442 21.7022 21.1926 23.8711Z" fill="black"/>
<path d="M39.2317 25.6083C38.6243 26.7664 37.7649 28.0345 35.9816 28.0708C35.946 27.6986 35.9178 27.1312 35.9816 26.907C37.344 26.7763 38.1859 26.0798 39.2292 25.6083" fill="black"/>
<path d="M30.6903 26.3529C31.8272 26.9501 33.9172 27.0147 35.4627 26.9692C35.5456 27.3067 35.5456 27.7244 35.5456 28.1363C33.5567 28.2356 31.2099 27.7451 30.6895 26.3529" fill="black"/>
<path d="M41.8873 34.0942C41.8873 34.0942 41.6262 36.2573 41.4365 35.914C40.5771 34.3564 37.4248 32.4233 37.4248 32.4233L38.3364 30.8235L41.8873 34.0942Z" fill="#2D2F2D"/>
<path d="M30.7058 52.6275C30.4189 51.8078 30.4155 50.9539 30.4496 50.6295L29.0151 50.7831L29.1688 53.9083C29.8007 53.8229 30.9927 53.4472 30.7058 52.6275Z" fill="#DCD9D8" stroke="black" stroke-width="0.579865"/>
<path d="M40.7412 45.2529L37.2261 43.6976C37.0984 43.6413 37.0361 43.4829 37.0869 43.3442C37.1377 43.2056 37.2825 43.139 37.4101 43.1959L40.9252 44.7512C41.0532 44.8078 41.1152 44.966 41.0644 45.1046C41.0136 45.2432 40.8689 45.3098 40.7412 45.2529Z" fill="#161344"/>
<path d="M41.2565 44.5738L37.3407 42.8396C37.2128 42.7829 37.1508 42.6248 37.2015 42.4862C37.2523 42.3476 37.3971 42.2811 37.5247 42.3379L41.4405 44.0722C41.5684 44.1288 41.6305 44.2869 41.5797 44.4255C41.5289 44.5642 41.3842 44.6307 41.2565 44.5738Z" fill="#161344"/>
<path d="M40.1911 45.9076L37.1526 44.5631C37.0248 44.5068 36.9625 44.3483 37.0133 44.2096C37.0641 44.0709 37.209 44.0044 37.3366 44.0612L40.3752 45.4057C40.5031 45.4624 40.5652 45.6205 40.5144 45.7592C40.4636 45.8974 40.3188 45.9639 40.1911 45.9076Z" fill="#161344"/>
<path fill-rule="evenodd" clip-rule="evenodd" d="M42.1967 43.1886C43.1716 43.1123 44.1213 42.7556 44.9131 42.0918C47.0489 40.3016 47.1397 36.9977 45.3096 34.8418C43.4796 32.686 40.1955 32.4444 38.0597 34.2346C35.9239 36.0248 35.833 39.1274 37.6631 41.2833C37.7033 41.3307 37.7442 41.3772 37.7858 41.4229C37.5721 41.4382 37.3965 41.5407 37.3358 41.7088C37.242 41.968 37.4567 42.2849 37.8152 42.4168L41.3991 43.7345C41.7576 43.8664 42.1243 43.7631 42.218 43.504C42.2546 43.4028 42.2442 43.2929 42.1967 43.1886Z" fill="#161344"/>
<path d="M41.1282 37.4534C41.1791 37.3011 41.1216 37.1299 40.9976 37.0256C40.965 36.9985 40.9282 36.9754 40.8873 36.959C40.7921 36.9202 40.69 36.9199 40.601 36.9584C40.5115 36.9967 40.4453 37.0691 40.4142 37.1626C40.383 37.2559 40.3912 37.3588 40.4364 37.4519C40.4819 37.5454 40.5594 37.6181 40.6551 37.657C40.8517 37.7368 41.0641 37.6454 41.1282 37.4534Z" fill="url(#paint0_linear)"/>
<path d="M41.2748 34.3687C41.3087 34.3528 41.3491 34.3524 41.3859 34.3673L42.7168 34.9088L43.0964 33.7695C43.0071 33.7335 42.9173 33.701 42.8273 33.6703L42.5811 34.4092C42.5696 34.4438 42.5446 34.4713 42.5113 34.4856C42.478 34.5 42.4395 34.4998 42.404 34.4854L41.2632 34.0212L39.9655 34.6321C39.9316 34.6481 39.8909 34.6487 39.8541 34.6338L38.746 34.1826C38.6584 34.2435 38.5736 34.3077 38.4907 34.3752L39.9766 34.9802L41.2748 34.3687Z" fill="url(#paint1_linear)"/>
<path d="M37.5693 38.2203L36.7508 37.8864C36.7504 37.986 36.753 38.0856 36.7589 38.1851L37.4829 38.4805L37.5693 38.2203Z" fill="url(#paint2_linear)"/>
<path d="M38.173 39.3279L38.785 37.4906L38.1834 37.2458L37.5711 39.0828L38.173 39.3279Z" fill="url(#paint3_linear)"/>
<path d="M37.7668 37.697L36.8144 37.3083C36.8023 37.4021 36.7931 37.4965 36.7867 37.5908L37.6807 37.9553L37.7668 37.697Z" fill="url(#paint4_linear)"/>
<path d="M44.4097 40.9796C44.3715 40.9646 44.3403 40.9338 44.3238 40.8958L43.9678 40.0634L41.3266 38.9871C41.3116 38.9809 41.2975 38.9723 41.2856 38.9625C41.2397 38.9236 41.2184 38.8602 41.237 38.8035L41.9133 36.772C41.8925 36.7581 41.8729 36.7437 41.8539 36.7277C41.6379 36.5461 41.5378 36.248 41.6263 35.9825C41.6804 35.8202 41.7959 35.6941 41.9513 35.6272C42.1068 35.5602 42.2844 35.5606 42.4506 35.6285C42.6165 35.696 42.752 35.8228 42.831 35.9855C42.9105 36.1482 42.9242 36.3272 42.8701 36.4896C42.8159 36.652 42.7004 36.7781 42.545 36.845C42.4301 36.8944 42.303 36.9069 42.1777 36.8828L41.5456 38.7818L44.1135 39.8282C44.1511 39.8437 44.1818 39.8739 44.1978 39.9113L44.5535 40.7429L45.3877 41.0731C45.4411 40.9979 45.4922 40.9206 45.5409 40.841L44.848 40.5683C44.8096 40.553 44.7783 40.5228 44.7621 40.4845L44.4061 39.652L42.5257 38.8856C42.5106 38.8794 42.4965 38.8709 42.4846 38.861C42.4387 38.8222 42.4174 38.7587 42.436 38.702L43.9093 34.2765C43.6811 34.1204 43.4394 33.9805 43.1836 33.8604L42.7658 35.115C42.7543 35.1493 42.7295 35.1766 42.6965 35.1909C42.6634 35.2052 42.6252 35.205 42.5901 35.1906L41.1948 34.6222L39.9074 35.229C39.8738 35.2449 39.8336 35.2452 39.7971 35.2305L38.1218 34.5477C37.924 34.734 37.7437 34.9412 37.5831 35.1674L39.0108 35.7493C39.0841 35.7792 39.1243 35.8613 39.1004 35.9329L38.7305 37.0445L39.1618 37.2205L38.9891 37.7389L40.2667 38.2593L40.414 37.817C40.3914 37.802 40.3697 37.7862 40.3488 37.7687C40.2709 37.7034 40.2067 37.6217 40.1616 37.5281C40.0821 37.3654 40.0684 37.1863 40.1225 37.024C40.1767 36.8616 40.2922 36.7355 40.4476 36.6686C40.603 36.6016 40.7806 36.602 40.9468 36.6699C41.2897 36.8092 41.478 37.196 41.3663 37.531C41.3122 37.6934 41.1967 37.8195 41.0413 37.8864C40.928 37.9349 40.8031 37.9477 40.6796 37.9252L40.4892 38.4974C40.4654 38.569 40.3869 38.6029 40.3133 38.5728L38.903 37.9981L38.8166 38.2582L41.2221 39.2383C41.2954 39.2682 41.3352 39.35 41.3117 39.4219L40.175 42.8742L40.4076 42.9689L41.5552 39.5214C41.579 39.4498 41.6576 39.4159 41.7312 39.446L43.6769 40.2387C43.7145 40.2541 43.7452 40.2843 43.7612 40.3217L44.1169 41.1533L45.0295 41.5131C45.0945 41.444 45.157 41.3727 45.2172 41.2992L44.4097 40.9796Z" fill="url(#paint5_linear)"/>
<path d="M44.5823 39.299C44.6197 39.3144 44.6503 39.3444 44.6662 39.3817L45.0202 40.21L45.7028 40.4786C45.7447 40.3986 45.7849 40.317 45.8221 40.2332L45.3143 40.0362C45.2985 40.0302 45.2839 40.0211 45.271 40.0106C45.2524 39.995 45.2377 39.975 45.228 39.9524L44.8737 39.1232L43.7578 38.6683C43.6849 38.6385 43.6452 38.5565 43.6689 38.4852L44.187 36.9277C44.165 36.9128 44.1434 36.8972 44.1231 36.8803C43.9082 36.6994 43.8085 36.4025 43.8966 36.1381C43.9502 35.9766 44.0651 35.8505 44.2201 35.7841C44.375 35.7172 44.5515 35.7178 44.7169 35.7854C44.882 35.8526 45.0169 35.979 45.0955 36.141C45.1746 36.303 45.1882 36.4814 45.1346 36.6429C45.0383 36.9321 44.7489 37.0894 44.4512 37.0355L43.9763 38.4639L45.0187 38.889C45.0561 38.9044 45.0867 38.9345 45.1026 38.9718L45.4564 39.7998L45.9249 39.9819C45.944 39.9307 45.9626 39.8789 45.9799 39.8266C46.6365 37.8531 45.8475 35.6395 44.1846 34.3544L42.7841 38.5656L44.5823 39.299Z" fill="url(#paint6_linear)"/>
<path d="M42.667 36.0671C42.641 36.0134 42.604 35.9663 42.5593 35.929C42.5263 35.9012 42.4889 35.8787 42.4483 35.862C42.2512 35.7817 42.0388 35.873 41.9749 36.0653C41.911 36.2576 42.0187 36.4794 42.2158 36.5597C42.4127 36.6397 42.6251 36.5484 42.6892 36.3564C42.7205 36.2632 42.7125 36.1606 42.667 36.0671Z" fill="url(#paint7_linear)"/>
<path d="M39.0365 41.8689C39.2336 41.9493 39.446 41.8579 39.5098 41.6656C39.5737 41.4733 39.4658 41.2513 39.2689 41.1712C39.0718 41.0909 38.8595 41.1822 38.7956 41.3745C38.7314 41.5665 38.8394 41.7886 39.0365 41.8689Z" fill="url(#paint8_linear)"/>
<path d="M40.8795 39.521L38.5989 38.5921L38.5116 38.8545L39.8899 39.4159C39.9638 39.4456 40.0038 39.5281 39.9796 39.6002L39.5203 40.9796C39.7809 41.1536 39.9102 41.4834 39.813 41.7746C39.7009 42.1106 39.33 42.27 38.986 42.1297C38.9146 42.1006 38.8499 42.061 38.7935 42.0134C38.5767 41.8313 38.4763 41.5324 38.5651 41.2662C38.6623 40.9749 38.954 40.8166 39.2544 40.8712L39.6702 39.6217L38.4247 39.1144L38.2492 39.6419L37.8166 39.4655L37.4579 40.5423C37.5688 40.715 37.6898 40.8817 37.8204 41.0414L37.6098 41.6728L37.6117 41.675C37.565 41.8182 37.6334 41.9772 37.7654 42.0309L39.63 42.7903L39.7817 42.8521L40.8795 39.521Z" fill="url(#paint9_linear)"/>
<path d="M43.8259 41.3652C43.7875 41.3501 43.7558 41.3194 43.7394 41.2809L43.3811 40.4438L41.616 39.7252L40.5042 43.0613L40.9358 43.2371L41.9572 43.6531C42.0901 43.707 42.2366 43.6343 42.2849 43.4906L42.293 43.4663L41.4457 43.1213C41.4305 43.1151 41.4163 43.1065 41.4043 43.0966C41.3581 43.0575 41.3367 42.9937 41.3555 42.9367L41.8558 41.4356C41.8327 41.4202 41.81 41.404 41.789 41.3864C41.5716 41.2037 41.4708 40.904 41.5599 40.637C41.6141 40.4739 41.7304 40.3466 41.8871 40.2796C42.0438 40.2121 42.2223 40.2127 42.3896 40.2809C42.7345 40.4213 42.9243 40.81 42.8118 41.1469C42.7147 41.4381 42.4233 41.5967 42.1234 41.5436L41.6663 42.9157L42.0914 42.8961L42.5294 42.758C43.3452 42.6074 44.0854 42.2431 44.6758 41.7006L43.8259 41.3652Z" fill="url(#paint10_linear)"/>
<path d="M42.4475 40.6063C42.415 40.5792 42.3782 40.5561 42.3373 40.5397C42.2421 40.5009 42.1399 40.5006 42.051 40.5391C41.9615 40.5775 41.8952 40.6498 41.8642 40.7433C41.8001 40.9359 41.908 41.1574 42.1051 41.2377C42.302 41.3178 42.5143 41.2264 42.5785 41.0344C42.629 40.8818 42.5716 40.7106 42.4475 40.6063Z" fill="url(#paint11_linear)"/>
<path d="M38.0833 36.9037L38.517 37.0805L38.846 36.0937L37.476 35.5361C37.305 35.8136 37.162 36.1155 37.0533 36.4417C36.9904 36.631 36.9409 36.8227 36.9036 37.0151L37.9099 37.425L38.0833 36.9037Z" fill="url(#paint12_linear)"/>
<path d="M41.1991 33.7442C41.2331 33.7282 41.2736 33.7273 41.3107 33.7425L42.3766 34.1765L42.5715 33.5922C41.3193 33.2453 40.0606 33.4202 39.0481 34.0087L39.9006 34.3559L41.1991 33.7442Z" fill="url(#paint13_linear)"/>
<path d="M37.1748 39.2649L37.3484 38.7426L36.7392 38.4939C36.8163 39.1191 37.0158 39.7298 37.32 40.2897L37.6024 39.4396L37.1748 39.2649Z" fill="url(#paint14_linear)"/>
<path d="M44.798 36.1078C44.7655 36.0806 44.7284 36.0578 44.6878 36.0412C44.5923 36.0021 44.4904 36.0021 44.4012 36.0402C44.3117 36.0786 44.2455 36.1509 44.2144 36.2445C44.1503 36.437 44.2582 36.6585 44.4553 36.7389C44.6522 36.8189 44.8646 36.7276 44.9287 36.5356C44.9795 36.3827 44.9221 36.2115 44.798 36.1078Z" fill="url(#paint15_linear)"/>
<path d="M30.4739 27.4679C31.2603 29.4383 33.9627 29.2116 36.2424 29.157C36.1413 29.4126 35.9242 29.7154 35.654 29.8246C34.9231 30.1215 32.9094 30.3465 31.8951 29.8088C31.2521 29.4672 30.8394 28.6963 30.4864 28.2446C30.3156 28.0262 29.4687 27.4687 30.4731 27.4679" fill="black"/>
<path d="M28.8802 26.8589C28.9681 26.7414 29.4512 26.5644 30.1232 26.8895C30.1232 26.8895 29.3219 27.0227 29.389 28.3553L29.0576 28.2891C29.0576 28.2891 28.7128 27.0798 28.8786 26.8589" fill="#F7E4CD"/>
<path d="M21.2761 29.9738L21.3292 31.6762C21.3292 31.6762 23.2741 34.4606 27.9197 35.0206C30.3693 35.3151 32.8148 35.2175 34.9146 34.0958C37.5872 32.6672 38.3123 30.4743 38.3123 30.4743C38.3123 30.4743 35.5353 32.8732 34.5102 33.2868C32.6308 34.0495 29.8066 33.927 28.0772 33.6913C23.2302 33.0328 21.2761 29.9738 21.2761 29.9738Z" fill="#857C6D" stroke="black" stroke-width="1.15973" stroke-miterlimit="10"/>
<path d="M42.773 44.8217C42.7357 44.4544 42.4978 43.6545 41.6891 43.8166C41.2266 43.9093 40.6731 44.8341 40.243 45.0276C38.6942 45.7233 37.0981 44.806 37.0981 44.806C37.0981 44.806 38.942 42.2962 37.2373 41.6518C36.291 41.2937 35.6985 42.6949 35.4971 43.3269C35.2079 44.2137 33.8953 45.0202 33.5339 45.2295H30.7564C30.7564 45.2295 29.9472 45.634 29.4757 48.0932C28.9677 50.7163 30.3466 51.4493 30.3466 51.4493L34.0312 50.818C34.0312 50.818 34.8839 50.8089 35.1573 50.8768C36.0341 51.096 37.5299 51.9852 38.6478 51.8198C41.1587 51.4484 41.1728 49.7948 41.1728 49.7948C41.1728 49.7948 41.6186 49.3034 41.6891 49.0991C41.798 48.7726 41.798 48.4197 41.6891 48.0932C41.6891 48.0932 42.2186 47.6954 42.386 47.1403C42.4394 46.9779 42.4563 46.8057 42.4355 46.636C42.4147 46.4663 42.3568 46.3033 42.2658 46.1584C42.2658 46.1584 42.8542 45.6141 42.773 44.8217Z" fill="white"/>
<path d="M29.4764 48.5799L29.6814 50.9714L30.4498 51.3464L34.0319 50.8176L35.1581 50.8763L37.7022 51.8789C37.7022 51.8789 40.8048 51.4173 40.8993 50.7638C40.9937 50.1103 37.9632 50.241 37.9632 50.241C37.9632 50.241 39.0314 50.5645 38.1886 50.9714C37.2622 51.4189 36.2122 49.9465 35.0877 49.9937C33.2944 50.069 31.6901 48.9671 31.6901 48.9671C31.6901 48.9671 32.8065 50.7133 32.0892 50.8763C28.7513 51.6348 29.4764 48.5799 29.4764 48.5799Z" fill="#DCD9D8"/>
<path d="M31.218 44.9543C33.1648 45.4043 33.0637 46.358 33.0637 46.358C33.0637 46.358 33.2494 45.8931 33.3836 45.6011C33.4759 45.39 33.5567 45.1741 33.6256 44.9543L31.218 44.9543Z" fill="#DCD9D8"/>
<path d="M42.6224 44.6389C42.6224 44.6389 42.2611 45.3892 41.328 46.113C40.1678 47.0122 38.3447 47.0502 38.3447 47.0502C38.3447 47.0502 40.1637 47.3737 41.4896 46.9303C43.0583 46.4042 42.6224 44.6389 42.6224 44.6389Z" fill="#DCD9D8"/>
<path d="M33.0632 46.3562C33.0765 46.1068 33.1174 45.8596 33.185 45.6191C33.2212 45.4944 33.2649 45.3721 33.316 45.2527C33.3408 45.1915 33.3698 45.1311 33.3988 45.0707C33.4146 45.0409 33.4312 45.0103 33.4494 44.9797C33.4577 44.9648 33.4668 44.9491 33.4776 44.9334C33.4885 44.9152 33.5007 44.8978 33.514 44.8813C33.5778 44.8208 33.663 44.7881 33.7508 44.7904C33.8387 44.7926 33.9221 44.8296 33.9827 44.8933C34.0432 44.9569 34.076 45.0419 34.0737 45.1296C34.0715 45.2174 34.0344 45.3006 33.9706 45.3611C33.9706 45.3611 33.9549 45.3677 33.945 45.3726L33.9135 45.3925C33.8919 45.4057 33.8704 45.4214 33.848 45.4363C33.8049 45.4686 33.761 45.5025 33.7196 45.5389C33.6316 45.6129 33.5486 45.6924 33.4709 45.7771C33.3924 45.8642 33.3188 45.9556 33.2505 46.0509C33.1829 46.1494 33.1203 46.2513 33.0632 46.3562Z" fill="black"/>
<path d="M42.2563 46.4436C42.2563 46.4436 41.895 47.0326 40.9594 47.7572C39.7992 48.6572 38.1692 48.7598 38.1692 48.7598C38.1692 48.7598 39.8871 49.0824 41.1591 48.5017C42.625 47.8341 42.2563 46.4436 42.2563 46.4436Z" fill="#DCD9D8"/>
<path d="M41.5652 48.2985C41.5652 48.2985 41.4865 48.7766 40.7655 49.2547C39.5415 50.067 37.9629 50.2424 37.9629 50.2424C37.9629 50.2424 39.7172 50.6304 40.9652 50C41.7599 49.5972 41.5652 48.2985 41.5652 48.2985Z" fill="#DCD9D8"/>
<path d="M36.4182 41.9361C36.4182 41.9361 37.1748 42.1015 37.1582 43.0272C37.1383 44.1852 36.8375 44.8685 36.8375 44.8685C36.8375 44.8685 38.6697 42.9899 37.8029 41.9369C37.1301 41.1196 36.4182 41.9361 36.4182 41.9361Z" fill="#DCD9D8"/>
<path d="M42.7733 44.8217C42.736 44.4544 42.4982 43.6545 41.6894 43.8166C41.227 43.9093 40.6734 44.8341 40.2434 45.0276C38.6945 45.7233 37.0985 44.806 37.0985 44.806C37.0985 44.806 38.9423 42.2962 37.2377 41.6518C36.2913 41.2937 35.6988 42.6949 35.4975 43.3269C35.2083 44.2137 33.8956 45.0202 33.5343 45.2295L30.9105 45.0276C30.9105 45.0276 30.1012 45.3526 29.6297 47.8119C29.1217 50.4349 30.3982 51.0907 30.3982 51.0907L34.0315 50.818C34.0315 50.818 34.8842 50.8089 35.1577 50.8768C36.0345 51.096 37.5302 51.9852 38.6481 51.8198C41.159 51.4484 41.1731 49.7948 41.1731 49.7948C41.1731 49.7948 41.619 49.3034 41.6894 49.0991C41.7983 48.7726 41.7983 48.4197 41.6894 48.0932C41.6894 48.0932 42.2189 47.6954 42.3863 47.1403C42.4397 46.9779 42.4566 46.8057 42.4359 46.636C42.4151 46.4663 42.3572 46.3033 42.2662 46.1584C42.2662 46.1584 42.8546 45.6141 42.7733 44.8217Z" stroke="black" stroke-width="0.579865" stroke-miterlimit="10"/>
<path d="M38.3433 47.0498L38.6035 47.0762L38.7327 47.0886L38.7974 47.0952H38.8629C39.0352 47.1021 39.2078 47.0999 39.3799 47.0886C39.4628 47.082 39.5507 47.0779 39.6352 47.0688L39.8838 47.0282C39.9676 47.0159 40.0507 46.9985 40.1324 46.9761C40.2153 46.9538 40.2981 46.9406 40.3769 46.9108L40.6155 46.8322L40.8467 46.7371C41.1475 46.6041 41.431 46.4352 41.6912 46.2341C41.7525 46.182 41.8163 46.1332 41.8735 46.0786C41.9033 46.0521 41.9315 46.0257 41.9563 45.9959C41.9704 45.9827 41.9845 45.9686 41.9961 45.9554C42.007 45.9444 42.0172 45.9328 42.0268 45.9206C42.0785 45.8511 42.1552 45.8042 42.2408 45.7898C42.3263 45.7753 42.4142 45.7944 42.486 45.8431C42.5577 45.8918 42.6079 45.9663 42.6259 46.051C42.644 46.1358 42.6285 46.2242 42.5828 46.2978C42.5673 46.3203 42.5493 46.3408 42.529 46.359L42.495 46.3896C42.4685 46.4128 42.4502 46.426 42.4295 46.4426C42.4088 46.4591 42.3897 46.4724 42.3699 46.4864C42.3301 46.5154 42.287 46.5435 42.2505 46.5691C42.1677 46.6229 42.0889 46.6684 42.0077 46.7164C41.8445 46.8057 41.6759 46.885 41.503 46.9538C41.3323 47.0213 41.1577 47.0787 40.9801 47.1259L40.7141 47.1887L40.4448 47.2326C40.3561 47.2499 40.265 47.2508 40.1755 47.2599C40.086 47.2695 39.9961 47.2742 39.9062 47.2739H39.6385C39.549 47.2698 39.4603 47.2599 39.3717 47.2532C39.1958 47.2372 39.021 47.2115 38.8479 47.1763L38.7825 47.1647L38.7187 47.1482L38.5919 47.1143L38.3433 47.0498Z" fill="black"/>
<path d="M38.1719 48.76L38.4014 48.7757C38.4785 48.7757 38.5539 48.7881 38.6301 48.7848C38.782 48.7869 38.9338 48.7811 39.0851 48.7674C39.3832 48.7426 39.678 48.688 39.9652 48.6045C40.2487 48.5252 40.5236 48.4177 40.7856 48.2835C40.9157 48.2182 41.0408 48.1454 41.1618 48.0693C41.2214 48.0287 41.2811 47.9866 41.3375 47.9485C41.3656 47.9278 41.393 47.9071 41.4203 47.8856C41.4477 47.8641 41.4477 47.865 41.4593 47.8542C41.4704 47.8456 41.4809 47.8362 41.4908 47.8261C41.5502 47.7593 41.6338 47.7188 41.7232 47.7135C41.8125 47.7082 41.9003 47.7386 41.9673 47.798C42.0342 47.8573 42.0747 47.9407 42.08 48.0299C42.0853 48.1191 42.0549 48.2068 41.9954 48.2736C41.976 48.296 41.9537 48.3157 41.9291 48.3323L41.8885 48.3588C41.8628 48.3753 41.8454 48.3844 41.8256 48.396L41.7684 48.4275C41.7303 48.4473 41.693 48.4672 41.6548 48.4845C41.5803 48.5218 41.504 48.5532 41.4294 48.5863C41.277 48.6467 41.1245 48.7021 40.9687 48.7517C40.6618 48.8441 40.3465 48.9057 40.0273 48.9354C39.7135 48.9668 39.3973 48.9668 39.0834 48.9354C38.9285 48.9212 38.7745 48.8992 38.6219 48.8692C38.5456 48.8564 38.4701 48.8396 38.3956 48.8187L38.1719 48.76Z" fill="black"/>
<path d="M41.2528 50.1926L41.2321 50.2091L41.2163 50.219L41.1873 50.2381L41.1326 50.2695C41.0953 50.291 41.0605 50.3059 41.0249 50.3241C40.9557 50.3553 40.8849 50.3829 40.8127 50.4068C40.674 50.4545 40.5319 50.4919 40.3876 50.5185C40.11 50.5661 39.8279 50.5827 39.5465 50.5681C39.4769 50.5631 39.4081 50.5607 39.3402 50.5549L39.1363 50.5301L39.0352 50.5168L38.9349 50.4978L38.7352 50.4597C38.6035 50.4308 38.4742 50.3944 38.3441 50.3621L37.9629 50.2405L38.359 50.2811C38.4916 50.2852 38.6225 50.2943 38.7535 50.2951H38.9499H39.0476L39.1446 50.2877L39.3377 50.2711L39.5283 50.243C39.7762 50.2051 40.0189 50.1391 40.2517 50.0461C40.3622 50.0009 40.4691 49.9476 40.5716 49.8865C40.6221 49.8567 40.6685 49.8236 40.7133 49.7914C40.7332 49.774 40.7572 49.7583 40.7746 49.7409L40.8011 49.7169L40.8119 49.7053C40.8444 49.6758 40.8825 49.653 40.9239 49.6383C40.9654 49.6236 41.0093 49.6173 41.0532 49.6197C41.0971 49.6221 41.1401 49.6332 41.1797 49.6523C41.2192 49.6715 41.2546 49.6983 41.2837 49.7312C41.3127 49.7642 41.335 49.8025 41.349 49.8441C41.3631 49.8857 41.3688 49.9296 41.3657 49.9734C41.3626 50.0172 41.3508 50.0599 41.331 50.0991C41.3111 50.1383 41.2837 50.1732 41.2503 50.2017L41.2528 50.1926Z" fill="black"/>
<path d="M31.6892 48.9684C31.8102 49.2695 32.0547 49.4862 32.3116 49.6591C32.5751 49.8282 32.857 49.967 33.1518 50.0727C33.4464 50.1805 33.7472 50.2703 34.0526 50.3415C34.3551 50.4143 34.6708 50.4764 34.9642 50.5169H34.9683C35.0562 50.5286 35.1359 50.5748 35.1897 50.6451C35.2436 50.7155 35.2672 50.8043 35.2555 50.892C35.2437 50.9798 35.1975 51.0593 35.127 51.113C35.0565 51.1668 34.9676 51.1904 34.8797 51.1787C34.8618 51.1764 34.8441 51.1731 34.8266 51.1687C34.5094 51.0678 34.1977 50.9504 33.8927 50.8172C33.589 50.6872 33.2935 50.5391 33.0076 50.3738C32.7199 50.2113 32.4514 50.0171 32.2071 49.7948C32.0859 49.6818 31.9775 49.5559 31.8839 49.4192C31.79 49.2832 31.7238 49.13 31.6892 48.9684Z" fill="black"/>
<path d="M29.1309 53.6961C28.8031 54.7207 24.9983 54.3621 23.1369 54.0547C21.9483 51.1448 21.7878 46.9677 21.8561 45.2429C24.0761 45.0551 28.5367 44.7921 28.6186 45.2429C28.7211 45.8065 28.926 52.4153 29.1309 53.6961Z" fill="white" stroke="black" stroke-width="0.579865"/>
<path d="M28.5632 53.024C28.5267 52.7115 28.1419 47.3603 27.8 45.2608H28.451C28.5498 47.8973 28.9507 53.2681 28.8595 53.6587C28.7683 54.0493 27.7535 54.256 27.366 54.1584C27.7079 54.0119 28.5997 53.3365 28.5632 53.024Z" fill="#DCD9D8"/>
<path d="M16.1541 23.1136C16.2282 23.2989 17.5747 25.1982 18.2387 26.1247C18.3314 25.9394 18.0997 25.2908 17.7755 24.9202C17.4512 24.5496 17.2196 23.9011 17.2196 23.0209C17.2196 22.3168 17.899 21.4613 18.2387 21.1216C19.017 19.4169 21.0645 16.5509 21.991 15.331C23.0102 15.2847 25.2801 14.5435 25.836 14.3119C26.3919 14.0802 30.9317 12.6905 31.8582 12.6442C32.7847 12.5978 37.5098 11.625 38.4363 11.7177C39.1775 11.7918 38.9613 12.9839 38.7606 13.5707L39.2701 13.478C39.5481 13.4008 40.2986 13.2001 41.0768 13.0148C42.0496 12.7831 42.4666 12.042 42.4666 11.625C42.4666 11.2915 41.7562 11.0228 41.4011 10.9302C40.7989 10.8529 39.5574 10.6707 39.4091 10.5596C39.2609 10.4484 39.0694 10.3588 38.9922 10.3279C38.915 10.3434 38.7328 10.365 38.6216 10.3279C38.251 10.0963 38.251 10.189 37.6488 10.0037C37.3245 9.58674 36.3208 8.44406 35.7031 8.0117C35.5024 7.93449 35.0824 7.70596 35.0083 7.40948C34.6377 6.20503 34.2207 5.88076 33.7112 5.32486C33.3035 4.88015 32.6766 4.5219 32.4141 4.39837C32.2597 4.42925 31.8582 4.44469 31.4876 4.25939C31.117 4.0741 30.8699 4.02777 30.7927 4.02777C30.2059 4.02777 28.8563 4.0463 28.1522 4.12042C27.272 4.21307 27.8743 4.35204 24.6315 4.90794C21.5556 5.3156 20.7866 7.05432 20.7866 7.87272C20.6167 8.197 20.0268 8.87334 19.0262 8.98452C17.3122 9.03084 16.9879 10.0037 16.6637 10.4669C16.4042 10.8375 15.5364 13.092 15.135 14.1729C15.0423 14.4817 14.7366 15.2013 14.2548 15.609C13.773 16.0166 13.6834 16.3656 13.6989 16.4891C13.6834 16.5972 13.6989 16.9709 13.8842 17.6009C14.1158 18.3884 13.8842 18.9443 13.8842 19.2223C13.8842 19.5002 14.1621 19.7782 14.3011 20.3804C14.4123 20.8622 14.5327 21.137 14.5791 21.2143C14.8416 21.554 15.3944 22.2612 15.5055 22.3724C15.6445 22.5113 16.0614 22.8819 16.1541 23.1136Z" fill="#0D0D0D" stroke="black" stroke-width="0.579865"/>
<path d="M37.8803 11.7176C37.9425 11.709 38.0081 11.7001 38.0766 11.691C39.2684 11.593 39.0711 12.8805 38.8068 13.5706C39.27 13.4779 41.7716 12.7367 41.9105 12.5978C42.0495 12.4588 42.0958 12.3662 42.1421 12.2736L42.1421 12.2735C42.1885 12.1808 42.4201 11.5786 42.0032 11.3933C41.6865 11.2525 39.3673 11.5184 38.0766 11.691C38.0149 11.6961 37.9496 11.7048 37.8803 11.7176Z" fill="black" stroke="black" stroke-width="0.579865"/>
<path d="M27.6427 11.6248C24.9003 12.8107 22.7014 14.5896 21.9448 15.3308L18.6857 20.0867C18.8556 19.6543 19.4896 16.9336 19.8602 16.4889C20.3234 15.933 22.9176 13.1999 23.7051 12.7829C24.4926 12.366 26.0214 11.3932 27.967 10.3277C29.9126 9.26225 33.387 8.52106 34.6378 8.52106C35.6384 8.52106 36.9077 9.47844 37.4172 9.95712C34.4061 9.12328 31.0707 10.1424 27.6427 11.6248Z" fill="#202020" stroke="black" stroke-width="0.579865"/>
<path d="M18.7481 13.339C16.8951 15.2661 15.3201 19.5465 14.7642 21.4458C14.9186 21.7083 15.283 22.2611 15.5054 22.3723C15.7833 22.5113 15.9686 22.9745 16.1076 23.1135C16.2466 23.2525 18.1459 26.2636 18.2386 26.1709C18.3312 26.0783 18.3312 25.8466 17.8216 25.0128C16.8025 23.2525 17.451 22.3723 17.4974 22.0943C17.5344 21.872 18.0069 21.2914 18.2386 21.0289C18.4702 20.5965 18.9427 19.6762 18.9797 19.4538C19.0261 19.1759 19.3967 17.1839 19.7673 16.5817C20.1379 15.9795 22.7321 13.6169 22.9637 13.339C23.149 13.1166 23.8438 12.6904 24.1681 12.5051C24.7395 12.1654 25.9377 11.4582 26.1601 11.347C26.438 11.208 27.0866 10.9301 28.152 10.2352C29.2638 9.67931 33.4331 8.5212 34.6838 8.47487C35.6845 8.43781 36.9229 9.44769 37.417 9.95726H37.6023C37.0773 9.30872 35.9531 8.00236 35.6567 7.9653C35.2119 7.92824 34.9463 7.42484 34.8691 7.17778C34.6684 6.97704 33.3404 6.62188 29.6344 6.80718C25.002 7.0388 21.0644 10.9301 18.7481 13.339Z" fill="#393939" stroke="black" stroke-width="0.579865"/>
<path d="M24.9856 52.7052C25.2422 52.618 25.2782 51.3696 25.2642 50.7563L25.7311 50.6313C25.7304 51.0306 25.6093 52.1664 25.5489 52.6843C25.2542 52.7276 24.729 52.7924 24.9856 52.7052Z" fill="#757F3F" stroke="black" stroke-width="0.17396"/>
<path d="M24.479 47.5263C23.9678 47.1094 23.6825 47.4888 23.6038 47.7306C23.5992 47.5372 23.6538 47.1121 23.9083 46.9585C24.1629 46.8049 24.4588 47.0225 24.575 47.1505C25.0314 46.4131 25.5131 46.7573 25.6969 47.0216C26.1117 46.3677 26.5105 46.8173 26.6394 47.076C26.4851 46.859 26.1478 46.9327 26.0469 47.0001C25.7748 47.187 25.6785 47.4706 25.4166 47.839C25.2071 48.1337 25.0837 48.7459 25.0482 49.0152C24.9949 48.969 25.0941 48.484 25.1503 48.2473C25.1311 48.1896 24.9699 47.9646 24.479 47.5263Z" fill="#F79329" stroke="black" stroke-width="0.115973"/>
<path d="M25.2755 50.7169C23.5393 50.7933 23.3579 49.079 23.5394 47.8957C23.8469 46.6222 24.7495 47.5876 25.1623 48.2295L25.0585 48.9808C25.1309 48.5468 25.4058 47.5485 25.9266 47.0277C26.4474 46.5068 26.9307 47.0551 27.0117 47.6787C27.2041 49.1604 27.1111 50.6361 25.2755 50.7169Z" fill="#ED6C30" stroke="black" stroke-width="0.17396"/>
<path d="M26.0035 51.667C25.2532 52.2298 24.4215 53.0679 25.0588 53.1691C26.7663 53.4402 27.5711 50.6777 27.5868 50.6777C27.6064 50.6353 27.3783 50.6357 26.0035 51.667Z" fill="#757F3F" stroke="black" stroke-width="0.17396"/>
<path d="M25.3845 52.2521C24.5829 52.9618 24.8904 53.1437 25.1443 53.1459C25.1443 52.9725 25.1443 53.0458 25.7002 52.3388C26.1448 51.7732 27.0555 51.0985 27.4742 50.8406C27.5131 50.8162 27.5794 50.6846 27.5048 50.7135C27.3447 50.7754 26.3866 51.365 25.3845 52.2521Z" fill="#BDCF46"/>
<path d="M25.1831 47.8984C25.2029 47.7821 25.3997 47.3488 25.4957 47.1467C25.1555 46.7692 24.8547 47.0498 24.7468 47.2372C24.8127 47.2724 25.0651 47.6926 25.1831 47.8984Z" fill="#ED6C30"/>
<defs>
<linearGradient id="paint0_linear" x1="39.0806" y1="42.3156" x2="42.5834" y2="33.8081" gradientUnits="userSpaceOnUse">
<stop offset="0.1763" stop-color="#FFD400"/>
<stop offset="0.7117" stop-color="#FFE72E"/>
<stop offset="1" stop-color="#FFEF42"/>
</linearGradient>
<linearGradient id="paint1_linear" x1="38.1435" y1="41.9258" x2="41.6635" y2="33.3689" gradientUnits="userSpaceOnUse">
<stop offset="0.1763" stop-color="#FFD400"/>
<stop offset="0.7117" stop-color="#FFE72E"/>
<stop offset="1" stop-color="#FFEF42"/>
</linearGradient>
<linearGradient id="paint2_linear" x1="36.0949" y1="41.2154" x2="39.5783" y2="32.7675" gradientUnits="userSpaceOnUse">
<stop offset="0.1763" stop-color="#FFD400"/>
<stop offset="0.7117" stop-color="#FFE72E"/>
<stop offset="1" stop-color="#FFEF42"/>
</linearGradient>
<linearGradient id="paint3_linear" x1="37.0532" y1="41.6164" x2="40.573" y2="33.0601" gradientUnits="userSpaceOnUse">
<stop offset="0.1763" stop-color="#FFD400"/>
<stop offset="0.7117" stop-color="#FFE72E"/>
<stop offset="1" stop-color="#FFEF42"/>
</linearGradient>
<linearGradient id="paint4_linear" x1="36.0516" y1="41.1802" x2="39.5351" y2="32.732" gradientUnits="userSpaceOnUse">
<stop offset="0.1763" stop-color="#FFD400"/>
<stop offset="0.7117" stop-color="#FFE72E"/>
<stop offset="1" stop-color="#FFEF42"/>
</linearGradient>
<linearGradient id="paint5_linear" x1="39.9894" y1="42.6633" x2="43.4884" y2="34.1672" gradientUnits="userSpaceOnUse">
<stop offset="0.1763" stop-color="#FFD400"/>
<stop offset="0.7117" stop-color="#FFE72E"/>
<stop offset="1" stop-color="#FFEF42"/>
</linearGradient>
<linearGradient id="paint6_linear" x1="42.8563" y1="43.6926" x2="46.3436" y2="35.2322" gradientUnits="userSpaceOnUse">
<stop offset="0.1763" stop-color="#FFD400"/>
<stop offset="0.7117" stop-color="#FFE72E"/>
<stop offset="1" stop-color="#FFEF42"/>
</linearGradient>
<linearGradient id="paint7_linear" x1="40.149" y1="42.6791" x2="43.6518" y2="34.1716" gradientUnits="userSpaceOnUse">
<stop offset="0.1763" stop-color="#FFD400"/>
<stop offset="0.7117" stop-color="#FFE72E"/>
<stop offset="1" stop-color="#FFEF42"/>
</linearGradient>
<linearGradient id="paint8_linear" x1="38.871" y1="42.3545" x2="42.3738" y2="33.8472" gradientUnits="userSpaceOnUse">
<stop offset="0.1763" stop-color="#FFD400"/>
<stop offset="0.7117" stop-color="#FFE72E"/>
<stop offset="1" stop-color="#FFEF42"/>
</linearGradient>
<linearGradient id="paint9_linear" x1="38.4574" y1="42.1715" x2="41.9649" y2="33.6502" gradientUnits="userSpaceOnUse">
<stop offset="0.1763" stop-color="#FFD400"/>
<stop offset="0.7117" stop-color="#FFE72E"/>
<stop offset="1" stop-color="#FFEF42"/>
</linearGradient>
<linearGradient id="paint10_linear" x1="42.1662" y1="43.6123" x2="45.6824" y2="35.0664" gradientUnits="userSpaceOnUse">
<stop offset="0.1763" stop-color="#FFD400"/>
<stop offset="0.7117" stop-color="#FFE72E"/>
<stop offset="1" stop-color="#FFEF42"/>
</linearGradient>
<linearGradient id="paint11_linear" x1="41.4158" y1="43.2746" x2="44.9185" y2="34.7672" gradientUnits="userSpaceOnUse">
<stop offset="0.1763" stop-color="#FFD400"/>
<stop offset="0.7117" stop-color="#FFE72E"/>
<stop offset="1" stop-color="#FFEF42"/>
</linearGradient>
<linearGradient id="paint12_linear" x1="36.2603" y1="41.2755" x2="39.7743" y2="32.7357" gradientUnits="userSpaceOnUse">
<stop offset="0.1763" stop-color="#FFD400"/>
<stop offset="0.7117" stop-color="#FFE72E"/>
<stop offset="1" stop-color="#FFEF42"/>
</linearGradient>
<linearGradient id="paint13_linear" x1="38.073" y1="41.9036" x2="41.5956" y2="33.3397" gradientUnits="userSpaceOnUse">
<stop offset="0.1763" stop-color="#FFD400"/>
<stop offset="0.7117" stop-color="#FFE72E"/>
<stop offset="1" stop-color="#FFEF42"/>
</linearGradient>
<linearGradient id="paint14_linear" x1="36.3702" y1="41.3486" x2="39.8495" y2="32.9136" gradientUnits="userSpaceOnUse">
<stop offset="0.1763" stop-color="#FFD400"/>
<stop offset="0.7117" stop-color="#FFE72E"/>
<stop offset="1" stop-color="#FFEF42"/>
</linearGradient>
<linearGradient id="paint15_linear" x1="42.1927" y1="43.4376" x2="45.6955" y2="34.9302" gradientUnits="userSpaceOnUse">
<stop offset="0.1763" stop-color="#FFD400"/>
<stop offset="0.7117" stop-color="#FFE72E"/>
<stop offset="1" stop-color="#FFEF42"/>
</linearGradient>
</defs>
</svg>
