<svg width="98" height="132" viewBox="0 0 98 132" fill="none" xmlns="http://www.w3.org/2000/svg">
<path d="M21.7469 71.8916L4.13696 83.372L9.38357 99.2715L11.2515 118.873L22.4658 122.907L43.7433 122.476L63.8695 119.043L61.1863 103.605L66.5934 102.96L73.8 78.6346L63.5828 69.666L54.75 78.2053L47.5049 80.2365L36.2607 79.286L27.7017 77.3915L21.7469 71.8916Z" fill="#1F1C16"/>
<path d="M21.7467 71.8872L25.8529 75.7532C25.8529 75.7532 20.9743 79.8113 15.9417 81.849C10.71 83.9849 9.68939 85.6936 9.68939 85.6936C9.68939 85.6936 12.6615 91.5758 14.6108 100.527C15.5094 104.641 15.8176 118.176 15.8176 118.176C15.8176 118.176 29.9654 122.217 36.6307 120.641C38.2825 120.25 40.7625 122.54 40.7625 122.54L24.2181 122.909L11.797 119.579L10.8192 106.8L8.55962 94.7711L4.49414 82.5965L21.7467 71.8872Z" fill="#2D2F2D"/>
<path d="M59.1167 74.6634L52.1284 79.2555L38.5604 79.7895L29.6035 77.8416L26.5416 75.3447L22.5767 71.0324L19.4741 62.2753L18.7851 60.3829L14.649 59.0052L12.2354 55.0496L10.5107 49.3702L12.4087 44.3808L16.8893 42.8323L20.5075 44.5474L22.2322 48.3322L24.3013 47.9883L24.9903 47.134L24.3013 43.1783L24.128 38.1889L25.1614 31.3049L25.1208 27.3728L28.264 22.3577L33.7803 18.3999L43.4326 14.2712L54.1183 15.8198L63.4262 22.5286L67.7356 29.4104L70.4915 34.3998L71.1805 46.788L69.1135 57.4546L65.3219 66.9187L61.7015 71.9081L59.1167 74.6634Z" fill="#F0D6B7"/>
<path d="M12.4082 44.3728L16.8888 42.8242L20.507 44.5479L22.2317 48.3327L24.3008 47.9888L24.8164 45.9234L23.783 41.9678L24.8164 32.5037L23.9605 27.3434L27.0631 23.7294L33.7862 18.3897L31.8904 15.8096L22.4007 20.4594L18.4379 23.5564L16.1955 28.3728L12.7505 33.0141L11.717 38.5247L12.4082 44.3728Z" fill="#6D6B6D"/>
<path d="M19.4739 28.2023C19.4739 28.2023 22.0587 21.8353 32.4 18.7382C42.7413 15.6412 32.9178 16.502 32.9178 16.502L21.7142 20.8036L17.4048 25.1117L15.509 28.5526L19.4739 28.2087" fill="#DCD9D8"/>
<path d="M50.0638 80.3327C42.6561 81.4007 31.4204 80.3648 26.3535 77.3617C25.136 76.6419 22.303 73.7307 21.8601 73.908C16.1299 76.1592 10.7656 80.0721 5.97263 83.7651C10.5431 93.5517 12.3918 107.196 12.7128 118.755C17.9487 121.199 21.8237 122.361 31.3048 122.2C44.7551 121.974 49.653 121.038 55.9609 119.921C57.9886 119.531 59.9821 118.981 61.9222 118.275C61.3744 113.74 59.5321 111.82 58.4194 107.809C57.1356 107.822 25.6196 107.762 21.5948 106.754C21.5819 104.746 24.1453 105.874 24.3593 104.524C24.5198 103.501 22.9492 103.424 23.4606 101.815C24.7658 102.287 25.4527 103.334 26.8435 103.727C28.1273 100.95 26.8264 96.0379 27.0104 93.7098C27.0446 93.2826 27.2244 91.2941 28.2065 91.6401C29.0731 91.9477 28.1573 96.9072 28.2514 99.105C28.3392 101.13 28.0375 103.964 28.8698 105.235C36.177 105.763 50.1537 106.886 57.5807 106.683C57.5807 106.683 62.6989 102.695 65.0825 101.754C65.9534 101.41 66.5803 99.419 67.2415 97.8278C69.056 93.4492 70.9604 87.9279 71.8055 83.748C71.9981 82.7954 72.5181 80.7215 72.4025 79.8735C72.1886 78.3549 70.1301 77.2314 69.0817 76.2916C67.1559 74.5594 65.932 73.0344 63.9164 71.4133C63.099 72.6179 58.2739 79.1494 50.0617 80.3327H50.0638ZM15.0087 32.1002C12.732 34.6013 13.207 39.2874 13.4831 42.6215C17.5999 40.0371 23.0626 42.8351 23.0113 47.2222C24.9777 47.171 23.7452 44.7724 23.39 43.2281C22.2281 38.181 25.3478 32.7003 23.5312 28.0847C20.0071 28.3517 17.112 29.7934 15.0087 32.1002ZM31.3027 17.5761C26.1481 19.035 19.5342 22.7749 17.4223 27.4012C19.0613 27.1641 20.2039 26.3333 21.8194 26.235C22.4314 26.1966 23.2316 26.4913 23.9356 26.3162C25.335 25.9702 26.5183 22.8347 27.5731 21.6685C28.628 20.5023 29.8413 20.0431 30.6886 19.0051C31.2321 18.7423 32.0366 18.7594 32.0687 17.9371C31.8355 17.6936 31.5851 17.5014 31.3027 17.5826V17.5761ZM49.8969 78.9359C52.9203 78.4318 54.784 77.0648 56.0122 76.2639C53.2092 77.304 45.2986 77.4621 41.5284 75.3219C39.3887 74.1087 36.7076 72.2292 34.9488 70.2941C32.9289 68.0706 30.8833 65.687 30.7785 62.7822C34.5957 68.0706 37.7518 72.6884 44.6867 75.0144C49.9418 76.7743 56.0786 75.0336 60.1162 72.2035C61.7916 71.0288 63.2038 68.3355 64.3957 66.6267C68.8335 59.1277 70.5174 51.0989 70.0595 42.2478C69.8712 38.5975 69.8798 34.9601 68.6516 32.5038C67.3678 29.9408 63.0327 27.6383 60.495 29.96C60.0242 27.4632 62.6047 25.9189 65.6303 26.8181C63.4841 24.0436 61.2139 20.686 58.1348 18.9538C52.7855 15.9401 43.7259 13.6739 38.0343 16.5061C33.4403 18.7915 27.2329 22.5741 25.1146 27.367C27.0917 31.9934 24.5305 36.231 24.3657 40.9256C24.2801 43.4246 25.5447 45.6054 25.6495 48.3265C24.9734 49.4414 22.9064 49.5781 21.4749 49.5012C20.9935 47.0962 20.1504 44.39 17.6684 44.1188C14.1549 43.7365 11.5873 46.637 11.4268 49.6721C11.2385 53.239 14.1721 59.149 18.3274 58.7389C19.9343 58.5787 20.328 56.9725 22.0783 56.9896C23.0262 58.8778 20.6148 59.4715 20.3666 60.8214C20.3024 61.1717 20.5677 62.5301 20.7217 63.1709C21.4771 66.285 23.1589 70.3154 24.815 72.6862C26.9184 75.6936 28.8399 77.02 33.2413 77.6992C37.7433 78.3955 45.7779 79.6215 49.8969 78.9359ZM62.6454 104.641C61.7638 106.243 66.116 118.087 63.4285 119.526C60.2425 120.836 26.5418 127.743 14.6578 121.634C13.16 120.938 11.0695 120.554 10.5067 119.357C9.96107 118.2 10.1836 115.981 10.0488 113.883C9.70431 108.526 9.40689 103.36 7.99253 97.8769C7.35061 95.4163 6.24651 93.2441 5.47407 90.8733C4.7594 88.6755 3.5098 85.9608 3.18456 83.7672C2.70099 80.5185 5.76507 80.3391 7.72292 78.9359C10.7528 76.7594 13.13 75.5547 16.4102 73.5961C17.3816 73.013 20.3109 71.5414 20.6447 70.8622C20.8865 69.6747 18.505 63.5383 17.7604 61.8424C16.5304 61.6395 15.3549 61.1877 14.3063 60.5148C13.2576 59.8419 12.3578 58.9621 11.6622 57.9294C9.57806 54.8794 8.13161 49.2364 9.9354 44.9432C10.0766 44.6058 10.7913 43.9394 10.8854 43.4204C11.0994 42.3973 10.5003 41.0388 10.4575 39.9517C10.2671 34.3706 11.4032 29.5649 15.1649 27.8818C16.6926 21.8073 22.1596 19.7868 27.3121 16.7752C29.2379 15.6474 31.3605 14.9255 33.5515 14.1203C41.415 11.2304 53.4809 11.7708 60.0071 16.7026C62.7759 18.7915 67.1987 23.2042 68.78 26.3974C72.9589 34.8298 72.6636 48.9224 69.7407 59.1789C69.347 60.5566 68.7778 62.5814 67.9818 64.2346C67.4255 65.3901 65.703 67.7011 65.9106 68.7199C66.1182 69.7387 69.8434 72.5901 70.6394 73.3569C72.0751 74.7388 74.8012 76.5736 75.0216 78.3164C75.2591 80.1725 74.202 82.71 73.6671 84.5105C71.8783 90.491 69.4904 97.9111 67.4619 103.24L62.6454 104.641Z" fill="black"/>
<path d="M14.3018 43.1702C14.3018 43.1702 10.6836 31.126 24.4719 29.4045L23.9541 27.3412L14.4837 29.5775L11.717 38.5247L12.4082 44.3727L14.3018 43.1702Z" fill="#DCD9D8"/>
<path d="M19.8184 59.1707L22.0758 56.9878C22.0758 56.9878 23.0943 57.1053 23.2655 58.3099C23.4366 59.5145 25.6855 72.2978 33.1082 78.148C33.7843 78.682 25.8631 75.3436 25.8631 75.3436L20.3362 66.7402" fill="#F7E4CD"/>
<path d="M51.5332 55.9001C51.5332 55.9001 51.9355 50.6864 53.3413 51.088C53.7387 51.1986 54.09 51.4337 54.3435 51.7586C54.5969 52.0835 54.7392 52.4811 54.7492 52.8928C54.7492 52.8928 51.3257 55.0992 51.5397 55.9001" fill="#F7E4CD"/>
<path d="M65.838 36.8018C65.838 36.8018 62.9986 37.4019 62.7376 39.8988C62.4765 42.3956 65.838 40.4157 66.3558 40.2427" fill="#F7E4CD"/>
<path d="M44.9829 36.976C44.9829 36.976 41.1892 37.4928 41.1892 39.9C41.1892 42.3071 45.4986 42.1384 46.7054 41.1046" fill="#F7E4CD"/>
<path d="M21.5458 48.1601C21.5458 48.1601 14.9961 44.2023 14.305 47.9871C13.6139 51.7719 12.0647 54.5251 15.3406 58.4829L13.0982 57.7908L11.0291 52.4511L10.3401 47.2887L14.3029 43.16L18.7856 43.5039L21.3704 45.5672L21.5437 48.1495" fill="#F7E4CD"/>
<path d="M64.6331 24.2449C64.6331 24.2449 59.6347 24.0719 59.4614 28.5466C59.4787 29.0241 59.596 29.4927 59.8059 29.9221C59.8059 29.9221 63.7708 25.4495 66.1844 27.8567" fill="#F7E4CD"/>
<path d="M42.7458 30.3871C42.7458 30.3871 41.8899 23.5223 36.0206 27.5122C32.229 30.0945 32.5735 33.7063 33.2625 34.394C33.9515 35.0818 33.7654 36.4701 34.2896 35.5175C34.8138 34.5649 34.6405 31.47 36.5384 30.6049C38.4364 29.7399 41.5411 28.7852 42.7437 30.3914" fill="#F7E4CD"/>
<path d="M42.7452 30.3867C38.0378 29.2952 35.7119 32.3495 34.289 35.5128C33.018 35.2052 33.5229 33.4794 33.8439 32.5994C34.6848 30.2927 38.0741 27.2192 40.8429 27.6356C42.0348 27.8151 43.646 28.9022 42.7452 30.3824" fill="black"/>
<path d="M65.6338 35.7252L65.8478 35.7359C66.9177 37.9359 67.8292 40.2682 69.1687 42.2119C68.27 44.2965 62.375 46.1419 62.4649 42.3977C63.7487 41.8424 65.9419 42.2845 67.0717 41.5733C66.4191 39.7834 65.4755 38.2584 65.6253 35.7252" fill="black"/>
<path d="M45.1501 35.7903C46.1579 37.6336 46.4853 39.5708 47.9168 40.9634C48.5587 41.5913 49.8147 42.356 49.2006 44.0989C49.0551 44.5111 47.9938 45.4274 47.3797 45.6089C45.1415 46.2668 39.927 45.7435 41.6923 42.9583C43.5432 43.0437 46.0317 44.1587 47.4161 42.8173C46.3462 41.1215 44.459 37.7681 45.1565 35.7903" fill="black"/>
<path d="M64.7933 54.519C61.4233 56.6806 57.6659 59.03 52.1433 58.4854C50.9643 57.4601 50.5128 55.1812 51.6597 53.6775C52.2567 54.7006 51.8737 56.5844 53.5448 56.8685C56.6773 57.4025 60.3256 54.9462 62.5787 54.0919C63.976 51.7424 62.4589 50.8752 61.1986 49.3609C58.6309 46.2596 55.1646 42.415 55.2887 37.7716C56.3307 37.0176 56.4206 38.9228 56.5725 39.2667C57.9184 42.4107 61.3056 46.4304 63.7791 49.1217C64.3846 49.7859 65.386 50.4203 65.4909 50.8603C65.8097 52.1418 64.6564 53.6604 64.7891 54.5084" fill="black"/>
<path d="M20.3616 52.2375C19.3067 51.6352 19.0542 48.9845 17.8153 48.9076C16.0415 48.8008 16.3646 52.3485 16.3732 54.4225C15.1514 53.3161 14.9374 49.9115 15.834 48.1643C14.8133 47.6624 14.3554 48.7154 13.7905 49.087C14.518 43.8071 21.5278 46.6372 20.3616 52.2375Z" fill="black"/>
<path d="M66.9391 56.722C65.3707 59.7123 63.1518 62.9866 58.5471 63.0806C58.4551 62.1194 58.3824 60.6542 58.5471 60.0754C62.0648 59.7379 64.2388 57.9395 66.9327 56.722" fill="black"/>
<path d="M44.8854 58.6456C47.8211 60.1877 53.2175 60.3543 57.2081 60.2369C57.4221 61.1083 57.4221 62.1869 57.4221 63.2506C52.2868 63.5069 46.227 62.2403 44.8833 58.6456" fill="black"/>
<path d="M73.7976 78.6336C73.7976 78.6336 73.1235 84.219 72.6336 83.3326C70.4147 79.3107 62.2751 74.3192 62.2751 74.3192L64.6288 70.1884L73.7976 78.6336Z" fill="#2D2F2D"/>
<path d="M44.9254 126.488C44.1846 124.372 44.1758 122.167 44.264 121.329L40.5601 121.726L40.9569 129.795C42.5884 129.575 45.6662 128.605 44.9254 126.488Z" fill="#DCD9D8" stroke="black" stroke-width="1.43967"/>
<path d="M70.8201 107.428L61.7534 103.448C61.424 103.304 61.2682 102.895 61.4052 102.537C61.5422 102.178 61.9205 102.005 62.2497 102.15L71.3165 106.13C71.6465 106.275 71.8017 106.682 71.6647 107.041C71.5276 107.4 71.1494 107.573 70.8201 107.428Z" fill="#161344"/>
<path d="M72.1518 105.672L62.0506 101.234C61.7207 101.089 61.5655 100.681 61.7025 100.323C61.8395 99.964 62.2177 99.7907 62.5469 99.9361L72.6481 104.374C72.978 104.519 73.1332 104.927 72.9962 105.285C72.8592 105.644 72.481 105.817 72.1518 105.672Z" fill="#161344"/>
<path d="M69.3996 109.12L61.5629 105.68C61.2335 105.536 61.0776 105.127 61.2147 104.769C61.3517 104.41 61.73 104.236 62.0593 104.382L69.896 107.822C70.2261 107.967 70.3813 108.375 70.2443 108.734C70.1074 109.091 69.729 109.265 69.3996 109.12Z" fill="#161344"/>
<path fill-rule="evenodd" clip-rule="evenodd" d="M74.6528 101.119C76.8848 100.905 79.044 100.057 80.8503 98.5423C85.8327 94.3647 86.2433 86.6973 81.7675 81.4166C77.2916 76.136 69.6242 75.2418 64.6418 79.4194C59.6594 83.597 59.2487 91.2644 63.7246 96.5451C63.8572 96.7015 63.9926 96.8541 64.1307 97.0028C63.526 96.9758 62.9975 97.2489 62.8255 97.734C62.5969 98.3786 63.0842 99.1533 63.914 99.4643L72.995 102.868C73.8248 103.179 74.6828 102.909 74.9114 102.264C75.045 101.887 74.934 101.466 74.6528 101.119Z" fill="#161344"/>
<path d="M71.8317 87.2997C71.9687 86.9065 71.8269 86.4661 71.5106 86.1988C71.4276 86.1292 71.3335 86.0703 71.2285 86.0285C70.9842 85.9296 70.7204 85.9301 70.4893 86.0302C70.2567 86.1302 70.0829 86.3174 69.9993 86.5589C69.915 86.7995 69.9324 87.0646 70.0456 87.3042C70.1595 87.5445 70.3568 87.7311 70.6025 87.8301C71.107 88.0332 71.6588 87.7953 71.8317 87.2997Z" fill="url(#paint0_linear)"/>
<path d="M72.2122 79.3365C72.3003 79.2949 72.4047 79.2936 72.4991 79.3316L75.913 80.7138L76.9345 77.7714C76.7053 77.6795 76.4749 77.5965 76.2436 77.5185L75.5814 79.4266C75.5503 79.516 75.4848 79.5871 75.3983 79.6246C75.3119 79.6621 75.2126 79.6619 75.1217 79.625L72.1951 78.4402L68.8244 80.0299C68.7364 80.0715 68.6313 80.0734 68.5368 80.0355L65.6944 78.8838C65.466 79.0417 65.2449 79.2083 65.0284 79.3833L68.8401 80.9275L72.2122 79.3365Z" fill="url(#paint1_linear)"/>
<path d="M62.6479 89.2791L60.5414 88.4275C60.5366 88.6844 60.5395 88.9414 60.5508 89.1979L62.4142 89.9512L62.6479 89.2791Z" fill="url(#paint2_linear)"/>
<path d="M64.1688 92.1421L65.8155 87.3972L64.2722 86.7724L62.6247 91.5166L64.1688 92.1421Z" fill="url(#paint3_linear)"/>
<path d="M63.1578 87.9274L60.7058 86.9361C60.6709 87.1782 60.6436 87.4219 60.6234 87.665L62.9251 88.5947L63.1578 87.9274Z" fill="url(#paint4_linear)"/>
<path d="M80.2163 96.3823C80.1181 96.3441 80.0384 96.2649 79.997 96.1669L79.1064 94.0212L72.3111 91.2699C72.2724 91.2541 72.2362 91.2322 72.2058 91.2068C72.0883 91.107 72.0357 90.9435 72.0859 90.7969L73.9103 85.5444C73.8571 85.5086 73.8069 85.4717 73.7582 85.4307C73.2059 84.964 72.9578 84.1954 73.1965 83.509C73.3426 83.0891 73.646 82.7624 74.0506 82.5879C74.4553 82.4135 74.9148 82.4127 75.3425 82.5861C75.7694 82.7586 76.1154 83.0848 76.3139 83.5039C76.5137 83.9231 76.5426 84.3853 76.3965 84.8052C76.2504 85.225 75.947 85.5517 75.5424 85.7262C75.2432 85.8551 74.9139 85.8887 74.5903 85.8277L72.8853 90.7376L79.492 93.4126C79.5887 93.4521 79.6671 93.5297 79.7071 93.6261L80.5972 95.7696L82.7436 96.6134C82.8846 96.4188 83.0196 96.2185 83.1486 96.0127L81.3655 95.3157C81.2667 95.2767 81.1869 95.1989 81.1463 95.1003L80.2556 92.9546L75.4176 90.9953C75.3789 90.9795 75.3427 90.9576 75.3123 90.9322C75.1948 90.8324 75.1422 90.6689 75.1924 90.5223L79.1667 79.08C78.5818 78.6794 77.9616 78.3205 77.304 78.0131L76.1769 81.2569C76.146 81.3457 76.0808 81.4165 75.9948 81.4537C75.9088 81.491 75.81 81.4908 75.7195 81.4541L72.1298 80.001L68.776 81.5814C68.6884 81.6228 68.5846 81.6241 68.4906 81.5863L64.1804 79.841C63.6617 80.324 63.1875 80.8609 62.7636 81.4467L66.4369 82.9343C66.6255 83.0106 66.7263 83.2221 66.662 83.4073L65.6642 86.2815L66.7737 86.7312L66.3079 88.0716L69.595 89.4019L69.9924 88.2583C69.9344 88.2198 69.8787 88.1794 69.8254 88.1343C69.6262 87.9664 69.4631 87.7562 69.3497 87.515C69.1499 87.0957 69.121 86.6336 69.2671 86.2137C69.4132 85.7938 69.7166 85.4671 70.1212 85.2927C70.5259 85.1182 70.9855 85.1174 71.4131 85.2908C72.2954 85.647 72.7684 86.6437 72.4671 87.5099C72.321 87.9298 72.0176 88.2565 71.613 88.4309C71.3182 88.5575 70.9945 88.5918 70.6756 88.5348L70.1621 90.0143C70.0978 90.1995 69.8933 90.2879 69.704 90.2108L66.0756 88.7419L65.8426 89.4142L72.0313 91.9198C72.2199 91.9961 72.3201 92.2068 72.2565 92.3928L69.1888 101.319L69.7871 101.561L72.883 92.6472C72.9473 92.462 73.1518 92.3736 73.3411 92.4508L78.3471 94.4769C78.4438 94.5164 78.5222 94.594 78.5622 94.6904L79.4523 96.8339L81.8008 97.7535C81.9713 97.5743 82.1358 97.3895 82.2943 97.1991L80.2163 96.3823Z" fill="url(#paint5_linear)"/>
<path d="M80.6965 92.0741C80.7929 92.1135 80.8711 92.1908 80.911 92.2869L81.7981 94.4228L83.5573 95.1096C83.6691 94.9025 83.7761 94.6913 83.8757 94.4743L82.5667 93.9708C82.526 93.9555 82.4886 93.9322 82.4555 93.9051C82.4077 93.8651 82.3704 93.8136 82.3461 93.7552L81.4584 91.6172L78.5829 90.4536C78.3949 90.3775 78.2951 90.1661 78.3592 89.9816L79.759 85.9531C79.7027 85.9149 79.6471 85.8747 79.5953 85.8313C79.0448 85.3663 78.7975 84.6004 79.0354 83.9164C79.1803 83.4987 79.4828 83.1717 79.8868 82.9987C80.2909 82.8242 80.7482 82.8241 81.1744 82.9968C81.6 83.1688 81.9448 83.4938 82.1426 83.9114C82.3418 84.3292 82.3705 84.7897 82.2256 85.2074C81.9652 85.9556 81.2094 86.3648 80.44 86.2287L79.1566 89.9233L81.8428 91.0107C81.9392 91.0501 82.0173 91.1274 82.0572 91.2235L82.9436 93.3586L84.1512 93.8242C84.2027 93.6917 84.2528 93.5576 84.2995 93.4223C86.0737 88.3178 84.1101 82.6082 79.8474 79.306L76.0631 90.1986L80.6965 92.0741Z" fill="url(#paint6_linear)"/>
<path d="M75.8142 83.7215C75.7491 83.5835 75.6555 83.4626 75.5415 83.3669C75.4572 83.2957 75.3616 83.2381 75.2574 83.1957C74.7515 82.9911 74.1998 83.2289 74.0276 83.7252C73.8553 84.2215 74.1248 84.7916 74.6307 84.9963C75.1359 85.2001 75.6876 84.9622 75.8605 84.4667C75.9448 84.2261 75.9281 83.9618 75.8142 83.7215Z" fill="url(#paint7_linear)"/>
<path d="M66.4221 98.7049C66.928 98.9096 67.4798 98.6717 67.652 98.1753C67.8243 97.6789 67.5541 97.1079 67.0488 96.904C66.5429 96.6993 65.9911 96.9372 65.8189 97.4336C65.646 97.9292 65.9162 98.5002 66.4221 98.7049Z" fill="url(#paint8_linear)"/>
<path d="M71.2409 92.6275L65.3812 90.255L65.1461 90.9329L68.6874 92.3669C68.8772 92.4427 68.9775 92.6553 68.9123 92.8415L67.6747 96.4061C68.3417 96.8524 68.6639 97.702 68.402 98.4545C68.1001 99.3226 67.1356 99.738 66.2517 99.3797C66.0683 99.3052 65.9026 99.2039 65.7585 99.0817C65.2051 98.614 64.9565 97.8438 65.1957 97.1558C65.4575 96.4032 66.2173 95.9916 66.9915 96.1292L68.112 92.9004L64.9119 91.6045L64.4391 92.9677L63.3274 92.5171L62.361 95.2997C62.6412 95.7441 62.9477 96.1731 63.2793 96.5838L62.7121 98.2154L62.7168 98.2209C62.5908 98.591 62.7618 99.0007 63.101 99.1378L67.8919 101.077L68.2816 101.235L71.2409 92.6275Z" fill="url(#paint9_linear)"/>
<path d="M78.8138 97.3865C78.7153 97.3481 78.6344 97.2692 78.5937 97.1701L77.6994 95.0144L73.1687 93.1795L70.1761 101.798L71.2839 102.247L73.9055 103.309C74.2469 103.447 74.6277 103.258 74.7575 102.886L74.7793 102.824L72.6045 101.943C72.5657 101.927 72.5293 101.905 72.4987 101.879C72.3808 101.779 72.3279 101.615 72.3784 101.467L73.725 97.5892C73.6662 97.5498 73.6081 97.5082 73.5546 97.463C72.9999 96.9942 72.7508 96.222 72.9906 95.5323C73.1365 95.111 73.4413 94.7813 73.8483 94.6068C74.2554 94.4308 74.7161 94.4306 75.1456 94.6048C76.0308 94.9632 76.5065 95.9639 76.2039 96.8342C75.9423 97.5866 75.1844 97.999 74.4119 97.865L73.1817 101.41L75.0139 102.152L75.4156 100.994C77.5272 100.597 79.4515 99.6485 80.9957 98.2428L78.8138 97.3865Z" fill="url(#paint10_linear)"/>
<path d="M75.2528 95.4443C75.1698 95.3748 75.0757 95.3159 74.9707 95.2742C74.7264 95.1753 74.4626 95.1758 74.2314 95.2759C73.9989 95.3758 73.8251 95.563 73.7415 95.8043C73.5685 96.3011 73.8388 96.8704 74.3447 97.075C74.8499 97.2788 75.4017 97.041 75.5746 96.5457C75.711 96.1518 75.5691 95.7116 75.2528 95.4443Z" fill="url(#paint11_linear)"/>
<path d="M63.9585 85.881L65.0717 86.3322L65.9574 83.7838L62.4411 82.3608C61.9896 83.0782 61.609 83.8585 61.3166 84.7007C61.1472 85.1896 61.0122 85.6847 60.909 86.1813L63.4916 87.2271L63.9585 85.881Z" fill="url(#paint12_linear)"/>
<path d="M72.0255 77.7245C72.1136 77.6829 72.2181 77.6801 72.3132 77.7189L75.0467 78.8265L75.5707 77.3178C72.3537 76.4366 69.1007 76.9015 66.4677 78.4301L68.6537 79.3162L72.0255 77.7245Z" fill="url(#paint13_linear)"/>
<path d="M61.6292 91.9829L62.0991 90.6322L60.5281 89.9963C60.7049 91.6102 61.1996 93.1854 61.968 94.6284L62.7319 92.4297L61.6292 91.9829Z" fill="url(#paint14_linear)"/>
<path d="M81.3223 83.828C81.2393 83.7584 81.1444 83.7001 81.0402 83.6577C80.7952 83.558 80.5321 83.5593 80.3003 83.6586C80.0677 83.7586 79.894 83.9459 79.8103 84.1873C79.6374 84.6843 79.9076 85.2539 80.4135 85.4586C80.9187 85.6625 81.4705 85.4246 81.6434 84.929C81.7805 84.5343 81.6386 84.0939 81.3223 83.828Z" fill="url(#paint15_linear)"/>
<path d="M44.3268 61.5243C46.3574 66.612 53.335 66.0267 59.2214 65.8858C58.9604 66.5458 58.3998 67.3275 57.7022 67.6094C55.815 68.3762 50.6155 68.9572 47.9964 67.5688C46.336 66.6867 45.2704 64.6961 44.3589 63.5299C43.9181 62.966 41.7313 61.5264 44.3247 61.5243" fill="black"/>
<path d="M40.2127 59.9523C40.4395 59.649 41.687 59.1919 43.4223 60.0313C43.4223 60.0313 41.3532 60.3752 41.5265 63.8161L40.6706 63.6452C40.6706 63.6452 39.7805 60.5225 40.2084 59.9523" fill="#F7E4CD"/>
<path d="M20.5781 67.9951L20.7151 72.3908C20.7151 72.3908 25.737 79.5802 37.7323 81.0261C44.0573 81.7865 50.3716 81.5345 55.7937 78.6382C62.6943 74.9496 64.5666 69.2873 64.5666 69.2873C64.5666 69.2873 57.3964 75.4814 54.7495 76.5493C49.8966 78.5186 42.6045 78.2025 38.1388 77.5938C25.6236 75.8936 20.5781 67.9951 20.5781 67.9951Z" fill="#857C6D" stroke="black" stroke-width="2.87933" stroke-miterlimit="10"/>
<path d="M76.0847 106.333C75.9884 105.384 75.3743 103.319 73.2859 103.738C72.092 103.977 70.6626 106.365 69.5521 106.865C65.553 108.661 61.4319 106.292 61.4319 106.292C61.4319 106.292 66.1927 99.8119 61.7913 98.148C59.3478 97.2232 57.8179 100.841 57.2979 102.473C56.5511 104.763 53.1618 106.845 52.2289 107.386H45.0572C45.0572 107.386 42.9676 108.43 41.7501 114.78C40.4385 121.553 43.9989 123.446 43.9989 123.446L53.5127 121.816C53.5127 121.816 55.7145 121.792 56.4206 121.967C58.6845 122.533 62.5466 124.829 65.4331 124.402C71.9165 123.443 71.9529 119.174 71.9529 119.174C71.9529 119.174 73.1041 117.905 73.2859 117.377C73.5672 116.534 73.5672 115.623 73.2859 114.78C73.2859 114.78 74.6532 113.753 75.0854 112.32C75.2233 111.9 75.267 111.456 75.2133 111.017C75.1597 110.579 75.0101 110.158 74.7752 109.784C74.7752 109.784 76.2944 108.379 76.0847 106.333Z" fill="white"/>
<path d="M41.7501 116.037L42.2793 122.212L44.2635 123.18L53.5128 121.815L56.4206 121.967L62.9896 124.555C62.9896 124.555 71.0007 123.363 71.2447 121.676C71.4886 119.989 63.6636 120.326 63.6636 120.326C63.6636 120.326 66.4217 121.161 64.2456 122.212C61.8534 123.368 59.1424 119.566 56.2388 119.688C51.6084 119.882 47.4659 117.037 47.4659 117.037C47.4659 117.037 50.3485 121.546 48.4965 121.967C39.8777 123.925 41.7501 116.037 41.7501 116.037Z" fill="#DCD9D8"/>
<path d="M46.2483 106.675C51.275 107.837 51.0141 110.3 51.0141 110.3C51.0141 110.3 51.4934 109.099 51.84 108.345C52.0784 107.8 52.287 107.243 52.4648 106.675L46.2483 106.675Z" fill="#DCD9D8"/>
<path d="M75.6954 105.861C75.6954 105.861 74.7625 107.799 72.3532 109.667C69.3575 111.989 64.6501 112.087 64.6501 112.087C64.6501 112.087 69.3468 112.923 72.7704 111.778C76.8209 110.419 75.6954 105.861 75.6954 105.861Z" fill="#DCD9D8"/>
<path d="M51.0132 110.295C51.0475 109.651 51.153 109.013 51.3277 108.392C51.421 108.07 51.5339 107.754 51.6658 107.446C51.73 107.288 51.8049 107.132 51.8798 106.976C51.9204 106.899 51.9632 106.82 52.0103 106.741C52.0317 106.702 52.0552 106.662 52.083 106.621C52.1112 106.574 52.1426 106.529 52.1772 106.487C52.3418 106.331 52.5617 106.246 52.7886 106.252C53.0155 106.258 53.2309 106.353 53.3872 106.518C53.5436 106.682 53.6281 106.901 53.6223 107.128C53.6165 107.354 53.5208 107.569 53.3562 107.725C53.3562 107.725 53.3155 107.743 53.2898 107.755L53.2085 107.807C53.1529 107.841 53.0973 107.881 53.0395 107.92C52.9282 108.003 52.8148 108.091 52.7078 108.185C52.4808 108.376 52.2663 108.581 52.0659 108.8C51.8631 109.025 51.673 109.261 51.4968 109.507C51.3221 109.761 51.1607 110.024 51.0132 110.295Z" fill="black"/>
<path d="M74.7504 110.521C74.7504 110.521 73.8175 112.041 71.4017 113.912C68.4061 116.236 64.1973 116.501 64.1973 116.501C64.1973 116.501 68.6329 117.334 71.9174 115.835C75.7026 114.111 74.7504 110.521 74.7504 110.521Z" fill="#DCD9D8"/>
<path d="M72.965 115.31C72.965 115.31 72.7617 116.545 70.9001 117.779C67.7398 119.877 63.6636 120.33 63.6636 120.33C63.6636 120.33 68.1934 121.331 71.4158 119.704C73.4678 118.664 72.965 115.31 72.965 115.31Z" fill="#DCD9D8"/>
<path d="M59.6753 98.8819C59.6753 98.8819 61.6289 99.309 61.5861 101.699C61.5347 104.689 60.758 106.454 60.758 106.454C60.758 106.454 65.4889 101.603 63.2508 98.884C61.5133 96.7737 59.6753 98.8819 59.6753 98.8819Z" fill="#DCD9D8"/>
<path d="M76.0846 106.333C75.9883 105.384 75.3742 103.319 73.2858 103.738C72.0918 103.977 70.6625 106.365 69.552 106.865C65.5528 108.661 61.4317 106.292 61.4317 106.292C61.4317 106.292 66.1926 99.8119 61.7912 98.148C59.3476 97.2232 57.8177 100.841 57.2978 102.473C56.551 104.763 53.1617 106.845 52.2288 107.386L45.4539 106.865C45.4539 106.865 43.3643 107.704 42.1468 114.054C40.8352 120.827 44.1311 122.52 44.1311 122.52L53.5126 121.816C53.5126 121.816 55.7144 121.792 56.4205 121.967C58.6843 122.533 62.5465 124.829 65.433 124.402C71.9164 123.443 71.9527 119.174 71.9527 119.174C71.9527 119.174 73.1039 117.905 73.2858 117.377C73.5671 116.534 73.5671 115.623 73.2858 114.78C73.2858 114.78 74.6531 113.753 75.0853 112.32C75.2232 111.9 75.2668 111.456 75.2132 111.017C75.1596 110.579 75.01 110.158 74.775 109.784C74.775 109.784 76.2943 108.379 76.0846 106.333Z" stroke="black" stroke-width="1.43967" stroke-miterlimit="10"/>
<path d="M64.646 112.086L65.3179 112.154L65.6517 112.186L65.8186 112.203H65.9876C66.4327 112.221 66.8783 112.216 67.3228 112.186C67.5368 112.169 67.7636 112.159 67.9818 112.135L68.6237 112.03C68.8402 111.999 69.0546 111.954 69.2657 111.896C69.4796 111.838 69.6936 111.804 69.8969 111.727L70.5131 111.524L71.1101 111.279C71.8868 110.935 72.6189 110.499 73.2905 109.98C73.4488 109.845 73.6136 109.719 73.7612 109.578C73.8383 109.51 73.911 109.442 73.9752 109.365C74.0116 109.331 74.048 109.294 74.0779 109.26C74.106 109.232 74.1324 109.202 74.1571 109.17C74.2907 108.991 74.4887 108.87 74.7096 108.833C74.9305 108.795 75.1574 108.845 75.3427 108.97C75.528 109.096 75.6575 109.288 75.7041 109.507C75.7507 109.726 75.7109 109.954 75.5928 110.144C75.5528 110.202 75.5062 110.255 75.4538 110.302L75.366 110.381C75.2976 110.441 75.2505 110.475 75.197 110.518C75.1435 110.561 75.0943 110.595 75.0429 110.631C74.9402 110.706 74.829 110.779 74.7348 110.845C74.5208 110.984 74.3176 111.101 74.1079 111.225C73.6864 111.456 73.2512 111.66 72.8048 111.838C72.3638 112.012 71.913 112.161 71.4546 112.282L70.7678 112.445L70.0723 112.558C69.8434 112.603 69.608 112.605 69.3769 112.628C69.146 112.653 68.9138 112.665 68.6815 112.665H67.9904C67.7593 112.654 67.5303 112.628 67.3014 112.611C66.8473 112.57 66.3959 112.504 65.9491 112.413L65.7801 112.383L65.6153 112.34L65.2879 112.253L64.646 112.086Z" fill="black"/>
<path d="M64.2031 116.502L64.7958 116.542C64.9948 116.542 65.1895 116.574 65.3864 116.566C65.7785 116.571 66.1706 116.556 66.5611 116.521C67.3308 116.457 68.092 116.316 68.8335 116.1C69.5656 115.896 70.2753 115.618 70.9518 115.272C71.2878 115.103 71.6109 114.915 71.9233 114.718C72.0773 114.614 72.2314 114.505 72.3769 114.407C72.4496 114.353 72.5202 114.3 72.5908 114.244C72.6615 114.189 72.6615 114.191 72.6914 114.163C72.7202 114.141 72.7474 114.116 72.7727 114.09C72.9262 113.918 73.1421 113.813 73.3728 113.8C73.6036 113.786 73.8303 113.865 74.0031 114.018C74.1759 114.171 74.2806 114.386 74.2943 114.617C74.3079 114.847 74.2293 115.073 74.0758 115.246C74.0256 115.304 73.9681 115.355 73.9046 115.398L73.7998 115.466C73.7335 115.509 73.6885 115.532 73.6372 115.562L73.4895 115.643C73.3911 115.694 73.2948 115.746 73.1964 115.791C73.0038 115.887 72.807 115.968 72.6144 116.053C72.2207 116.209 71.827 116.352 71.4247 116.48C70.6323 116.719 69.818 116.878 68.994 116.955C68.1836 117.036 67.3672 117.036 66.5568 116.955C66.1569 116.918 65.7591 116.861 65.365 116.784C65.1681 116.751 64.9731 116.707 64.7809 116.653L64.2031 116.502Z" fill="black"/>
<path d="M72.1583 120.201L72.1048 120.244L72.0641 120.27L71.9892 120.319L71.848 120.4C71.7517 120.455 71.6619 120.494 71.5699 120.541C71.3911 120.622 71.2083 120.693 71.0221 120.754C70.6639 120.878 70.297 120.974 69.9244 121.043C69.2075 121.166 68.479 121.209 67.7526 121.171C67.5729 121.158 67.3952 121.152 67.2198 121.137L66.6934 121.073L66.4324 121.038L66.1735 120.989L65.6578 120.891C65.3176 120.816 64.9838 120.722 64.6478 120.639L63.6636 120.325L64.6864 120.43C65.0287 120.44 65.3668 120.464 65.7049 120.466H66.212H66.4645L66.7148 120.447L67.2134 120.404L67.7055 120.332C68.3455 120.234 68.9723 120.063 69.5735 119.823C69.8587 119.706 70.1348 119.569 70.3994 119.411C70.5299 119.334 70.6498 119.249 70.7653 119.165C70.8167 119.12 70.8787 119.08 70.9237 119.035L70.9921 118.973L71.0199 118.943C71.1039 118.867 71.2022 118.808 71.3092 118.77C71.4162 118.732 71.5296 118.716 71.643 118.722C71.7564 118.728 71.8673 118.757 71.9695 118.806C72.0717 118.856 72.1629 118.925 72.238 119.01C72.3131 119.095 72.3705 119.194 72.4068 119.301C72.4432 119.409 72.4578 119.522 72.4498 119.635C72.4418 119.748 72.4113 119.859 72.3601 119.96C72.309 120.061 72.2382 120.151 72.1519 120.225L72.1583 120.201Z" fill="black"/>
<path d="M47.4666 117.04C47.779 117.817 48.4102 118.377 49.0735 118.823C49.7539 119.26 50.4818 119.618 51.2432 119.891C52.0036 120.17 52.7804 120.401 53.569 120.585C54.35 120.773 55.1653 120.934 55.9227 121.038H55.9334C56.1604 121.069 56.3661 121.188 56.5051 121.369C56.6442 121.551 56.7052 121.78 56.6749 122.007C56.6445 122.234 56.5252 122.439 56.3432 122.578C56.1612 122.716 55.9315 122.777 55.7045 122.747C55.6584 122.741 55.6127 122.733 55.5676 122.721C54.7485 122.461 53.9436 122.158 53.1561 121.814C52.3721 121.478 51.6089 121.096 50.8709 120.669C50.1279 120.249 49.4346 119.748 48.8039 119.174C48.4908 118.882 48.211 118.557 47.9694 118.204C47.7268 117.853 47.556 117.457 47.4666 117.04Z" fill="black"/>
<path d="M40.8586 129.247C40.012 131.893 30.1878 130.967 25.3815 130.173C22.3126 122.66 21.8981 111.874 22.0745 107.421C27.8067 106.936 39.3241 106.256 39.5358 107.421C39.8003 108.876 40.3294 125.94 40.8586 129.247Z" fill="white" stroke="black" stroke-width="1.43967"/>
<path d="M39.3928 127.512C39.2986 126.705 38.3051 112.888 37.4222 107.467H39.1032C39.3583 114.274 40.3934 128.142 40.158 129.151C39.9226 130.159 37.3021 130.693 36.3015 130.441C37.1844 130.063 39.487 128.319 39.3928 127.512Z" fill="#DCD9D8"/>
<path d="M7.3512 50.2808C7.54258 50.7593 11.0193 55.6634 12.7338 58.0557C12.973 57.5773 12.375 55.9027 11.5377 54.9458C10.7004 53.9888 10.1023 52.3143 10.1023 50.0416C10.1023 48.2235 11.8566 46.0146 12.7338 45.1374C14.7433 40.7357 20.0302 33.3356 22.4225 30.1857C25.054 30.0661 30.9151 28.1523 32.3504 27.5542C33.7858 26.9562 45.5079 23.3678 47.9002 23.2481C50.2925 23.1285 62.4931 20.6166 64.8854 20.8559C66.7992 21.0472 66.241 24.1253 65.7227 25.6404L67.0384 25.4012C67.7561 25.2018 69.6938 24.6835 71.7033 24.205C74.2152 23.607 75.2917 21.6932 75.2917 20.6166C75.2917 19.7554 73.4577 19.0617 72.5406 18.8224C70.9857 18.6231 67.78 18.1526 67.3972 17.8655C67.0145 17.5785 66.5201 17.3472 66.3207 17.2675C66.1214 17.3073 65.6509 17.3631 65.3638 17.2675C64.4069 16.6694 64.4069 16.9086 62.8519 16.4302C62.0146 15.3536 59.423 12.4032 57.8282 11.2868C57.3098 11.0874 56.2253 10.4973 56.034 9.7318C55.077 6.62184 54.0005 5.78455 52.6848 4.34918C51.6322 3.20089 50.0134 2.27588 49.3356 1.95691C48.9369 2.03665 47.9002 2.07652 46.9433 1.59807C45.9864 1.11961 45.3485 1 45.1491 1C43.634 1 40.1493 1.04785 38.3311 1.23923C36.0585 1.47845 37.6134 1.8373 29.2405 3.27266C21.2981 4.32526 19.3126 8.81476 19.3126 10.9279C18.874 11.7652 17.3509 13.5116 14.7672 13.7987C10.3415 13.9183 9.50424 16.4302 8.66695 17.6263C7.99711 18.5832 5.75635 24.4044 4.7197 27.1954C4.48047 27.9928 3.69102 29.8508 2.44704 30.9034C1.20306 31.956 0.971802 32.8571 1.01167 33.1761C0.971802 33.4552 1.01167 34.4201 1.49013 36.0468C2.0882 38.0802 1.49013 39.5156 1.49013 40.2333C1.49013 40.951 2.20781 41.6686 2.56665 43.2236C2.85372 44.4676 3.16472 45.1773 3.28433 45.3767C3.96214 46.2538 5.38953 48.0799 5.67661 48.367C6.03545 48.7258 7.11197 49.6828 7.3512 50.2808Z" fill="#0D0D0D" stroke="black" stroke-width="1.43967"/>
<path d="M63.4505 20.8558C63.6111 20.8337 63.7805 20.8107 63.9572 20.7871C67.0345 20.534 66.5251 23.8585 65.8427 25.6403C67.0388 25.4011 73.498 23.4873 73.8568 23.1284C74.2155 22.7697 74.3351 22.5305 74.4547 22.2913L74.4548 22.2911C74.5744 22.0519 75.1726 20.4969 74.0961 20.0185C73.2782 19.655 67.29 20.3414 63.9572 20.7871C63.7981 20.8002 63.6293 20.8228 63.4505 20.8558Z" fill="black" stroke="black" stroke-width="1.43967"/>
<path d="M37.0159 20.616C29.9348 23.6782 24.2571 28.2713 22.3034 30.1851L13.8884 42.4651C14.3269 41.3487 15.9639 34.3238 16.9208 33.1755C18.117 31.7401 24.8153 24.6829 26.8488 23.6064C28.8822 22.5299 32.8294 20.018 37.8532 17.2669C42.877 14.5157 51.848 12.6019 55.0776 12.6019C57.6612 12.6019 60.9386 15.0739 62.2544 16.31C54.4795 14.1569 45.8673 16.7884 37.0159 20.616Z" fill="#202020" stroke="black" stroke-width="1.43967"/>
<path d="M14.0492 25.0415C9.26463 30.0175 5.19777 41.0698 3.7624 45.9739C4.16111 46.6517 5.10207 48.0791 5.67622 48.3662C6.3939 48.725 6.87236 49.9212 7.2312 50.28C7.59004 50.6388 12.4942 58.4137 12.7334 58.1745C12.9727 57.9353 12.9727 57.3372 11.6569 55.1842C9.0254 50.6388 10.7 48.3662 10.8196 47.6485C10.9153 47.0744 12.1354 45.5752 12.7334 44.8974C13.3315 43.781 14.5516 41.4047 14.6472 40.8305C14.7669 40.1128 15.7238 34.9695 16.6807 33.4145C17.6376 31.8595 24.3359 25.7592 24.934 25.0415C25.4125 24.4674 27.2067 23.3669 28.044 22.8885C29.5192 22.0113 32.6132 20.1852 33.1874 19.8981C33.905 19.5393 35.5796 18.8216 38.3307 17.0274C41.2015 15.592 51.9667 12.6017 55.1963 12.4821C57.7799 12.3864 60.9776 14.994 62.2535 16.3097H62.7319C61.3763 14.6351 58.4737 11.262 57.7082 11.1663C56.5599 11.0707 55.8741 9.77085 55.6747 9.13291C55.1564 8.61459 51.7275 7.69755 42.1584 8.17601C30.197 8.77407 20.0299 18.8216 14.0492 25.0415Z" fill="#393939" stroke="black" stroke-width="1.43967"/>
<path d="M30.1566 126.688C30.8192 126.463 30.9122 123.239 30.8759 121.655L32.0815 121.333C32.0797 122.364 31.7671 125.296 31.6111 126.634C30.8502 126.746 29.4941 126.913 30.1566 126.688Z" fill="#757F3F" stroke="black" stroke-width="0.4319"/>
<path d="M28.8476 113.316C27.5274 112.239 26.7909 113.219 26.5876 113.843C26.5758 113.344 26.7167 112.247 27.374 111.85C28.0313 111.453 28.7954 112.015 29.0952 112.346C30.2739 110.442 31.5177 111.33 31.9923 112.013C33.0633 110.324 34.0928 111.485 34.4257 112.153C34.0273 111.593 33.1563 111.783 32.8959 111.957C32.1932 112.44 31.9447 113.172 31.2685 114.123C30.7275 114.884 30.4089 116.465 30.3172 117.16C30.1797 117.041 30.4356 115.789 30.5808 115.178C30.5312 115.029 30.115 114.448 28.8476 113.316Z" fill="#F79329" stroke="black" stroke-width="0.287933"/>
<path d="M30.9051 121.553C26.4223 121.75 25.9538 117.324 26.4223 114.269C27.2164 110.98 29.5469 113.473 30.6129 115.13L30.3449 117.07C30.5317 115.95 31.2415 113.372 32.5863 112.027C33.9312 110.682 35.179 112.098 35.3881 113.708C35.8849 117.534 35.6449 121.345 30.9051 121.553Z" fill="#ED6C30" stroke="black" stroke-width="0.4319"/>
<path d="M32.7852 124.008C30.8479 125.461 28.7004 127.625 30.3461 127.886C34.7549 128.586 36.833 121.453 36.8736 121.453C36.9241 121.344 36.3352 121.345 32.7852 124.008Z" fill="#757F3F" stroke="black" stroke-width="0.4319"/>
<path d="M31.1871 125.518C29.1171 127.35 29.9111 127.82 30.5668 127.826C30.5668 127.378 30.5668 127.567 32.002 125.742C33.1502 124.281 35.5016 122.539 36.5828 121.873C36.6833 121.81 36.8543 121.471 36.6616 121.545C36.2484 121.705 33.7745 123.227 31.1871 125.518Z" fill="#BDCF46"/>
<path d="M30.6674 114.276C30.7186 113.976 31.2268 112.857 31.4746 112.335C30.5963 111.361 29.8196 112.085 29.541 112.569C29.711 112.66 30.3628 113.745 30.6674 114.276Z" fill="#ED6C30"/>
<defs>
<linearGradient id="paint0_linear" x1="66.3601" y1="99.8547" x2="75.3956" y2="77.7522" gradientUnits="userSpaceOnUse">
<stop offset="0.1763" stop-color="#FFD400"/>
<stop offset="0.7117" stop-color="#FFE72E"/>
<stop offset="1" stop-color="#FFEF42"/>
</linearGradient>
<linearGradient id="paint1_linear" x1="63.8555" y1="98.8599" x2="72.9551" y2="76.6321" gradientUnits="userSpaceOnUse">
<stop offset="0.1763" stop-color="#FFD400"/>
<stop offset="0.7117" stop-color="#FFE72E"/>
<stop offset="1" stop-color="#FFEF42"/>
</linearGradient>
<linearGradient id="paint2_linear" x1="58.7159" y1="97.0213" x2="67.6955" y2="75.0437" gradientUnits="userSpaceOnUse">
<stop offset="0.1763" stop-color="#FFD400"/>
<stop offset="0.7117" stop-color="#FFE72E"/>
<stop offset="1" stop-color="#FFEF42"/>
</linearGradient>
<linearGradient id="paint3_linear" x1="61.1954" y1="98.056" x2="70.2934" y2="75.83" gradientUnits="userSpaceOnUse">
<stop offset="0.1763" stop-color="#FFD400"/>
<stop offset="0.7117" stop-color="#FFE72E"/>
<stop offset="1" stop-color="#FFEF42"/>
</linearGradient>
<linearGradient id="paint4_linear" x1="58.5835" y1="96.931" x2="67.5624" y2="74.9533" gradientUnits="userSpaceOnUse">
<stop offset="0.1763" stop-color="#FFD400"/>
<stop offset="0.7117" stop-color="#FFE72E"/>
<stop offset="1" stop-color="#FFEF42"/>
</linearGradient>
<linearGradient id="paint5_linear" x1="68.7162" y1="100.776" x2="77.7626" y2="78.6715" gradientUnits="userSpaceOnUse">
<stop offset="0.1763" stop-color="#FFD400"/>
<stop offset="0.7117" stop-color="#FFE72E"/>
<stop offset="1" stop-color="#FFEF42"/>
</linearGradient>
<linearGradient id="paint6_linear" x1="76.0621" y1="103.441" x2="85.0749" y2="81.4135" gradientUnits="userSpaceOnUse">
<stop offset="0.1763" stop-color="#FFD400"/>
<stop offset="0.7117" stop-color="#FFE72E"/>
<stop offset="1" stop-color="#FFEF42"/>
</linearGradient>
<linearGradient id="paint7_linear" x1="69.0616" y1="100.789" x2="78.0947" y2="78.6888" gradientUnits="userSpaceOnUse">
<stop offset="0.1763" stop-color="#FFD400"/>
<stop offset="0.7117" stop-color="#FFE72E"/>
<stop offset="1" stop-color="#FFEF42"/>
</linearGradient>
<linearGradient id="paint8_linear" x1="65.9763" y1="99.9584" x2="75.0117" y2="77.8552" gradientUnits="userSpaceOnUse">
<stop offset="0.1763" stop-color="#FFD400"/>
<stop offset="0.7117" stop-color="#FFE72E"/>
<stop offset="1" stop-color="#FFEF42"/>
</linearGradient>
<linearGradient id="paint9_linear" x1="64.8842" y1="99.493" x2="73.9509" y2="77.3391" gradientUnits="userSpaceOnUse">
<stop offset="0.1763" stop-color="#FFD400"/>
<stop offset="0.7117" stop-color="#FFE72E"/>
<stop offset="1" stop-color="#FFEF42"/>
</linearGradient>
<linearGradient id="paint10_linear" x1="74.4467" y1="103.202" x2="83.5379" y2="80.9944" gradientUnits="userSpaceOnUse">
<stop offset="0.1763" stop-color="#FFD400"/>
<stop offset="0.7117" stop-color="#FFE72E"/>
<stop offset="1" stop-color="#FFEF42"/>
</linearGradient>
<linearGradient id="paint11_linear" x1="72.4873" y1="102.33" x2="81.5163" y2="80.2343" gradientUnits="userSpaceOnUse">
<stop offset="0.1763" stop-color="#FFD400"/>
<stop offset="0.7117" stop-color="#FFE72E"/>
<stop offset="1" stop-color="#FFEF42"/>
</linearGradient>
<linearGradient id="paint12_linear" x1="59.091" y1="97.175" x2="68.1701" y2="74.9879" gradientUnits="userSpaceOnUse">
<stop offset="0.1763" stop-color="#FFD400"/>
<stop offset="0.7117" stop-color="#FFE72E"/>
<stop offset="1" stop-color="#FFEF42"/>
</linearGradient>
<linearGradient id="paint13_linear" x1="63.6627" y1="98.7996" x2="72.7696" y2="76.5572" gradientUnits="userSpaceOnUse">
<stop offset="0.1763" stop-color="#FFD400"/>
<stop offset="0.7117" stop-color="#FFE72E"/>
<stop offset="1" stop-color="#FFEF42"/>
</linearGradient>
<linearGradient id="paint14_linear" x1="59.465" y1="97.3737" x2="68.4506" y2="75.4051" gradientUnits="userSpaceOnUse">
<stop offset="0.1763" stop-color="#FFD400"/>
<stop offset="0.7117" stop-color="#FFE72E"/>
<stop offset="1" stop-color="#FFEF42"/>
</linearGradient>
<linearGradient id="paint15_linear" x1="74.3167" y1="102.75" x2="83.3529" y2="80.647" gradientUnits="userSpaceOnUse">
<stop offset="0.1763" stop-color="#FFD400"/>
<stop offset="0.7117" stop-color="#FFE72E"/>
<stop offset="1" stop-color="#FFEF42"/>
</linearGradient>
</defs>
</svg>
